<?xml version="1.0" encoding="UTF-8" standalone="no"?>
<!-- Created with Inkscape (http://www.inkscape.org/) -->

<svg
   id="svg2"
   version="1.1"
   inkscape:version="1.2.2 (b0a84865, 2022-12-01)"
   width="40"
   height="40"
   xml:space="preserve"
   sodipodi:docname="aa.svg"
   xmlns:inkscape="http://www.inkscape.org/namespaces/inkscape"
   xmlns:sodipodi="http://sodipodi.sourceforge.net/DTD/sodipodi-0.dtd"
   xmlns="http://www.w3.org/2000/svg"
   xmlns:svg="http://www.w3.org/2000/svg"
   xmlns:rdf="http://www.w3.org/1999/02/22-rdf-syntax-ns#"
   xmlns:cc="http://creativecommons.org/ns#"
   xmlns:dc="http://purl.org/dc/elements/1.1/"><metadata
     id="metadata8"><rdf:RDF><cc:Work
         rdf:about=""><dc:format>image/svg+xml</dc:format><dc:type
           rdf:resource="http://purl.org/dc/dcmitype/StillImage" /></cc:Work></rdf:RDF></metadata><defs
     id="defs6"><inkscape:perspective
       sodipodi:type="inkscape:persp3d"
       inkscape:vp_x="0 : 0.5 : 1"
       inkscape:vp_y="0 : 1000 : 0"
       inkscape:vp_z="1 : 0.5 : 1"
       inkscape:persp3d-origin="0.5 : 0.33333333 : 1"
       id="perspective10" /><inkscape:perspective
       id="perspective2834"
       inkscape:persp3d-origin="0.5 : 0.33333333 : 1"
       inkscape:vp_z="1 : 0.5 : 1"
       inkscape:vp_y="0 : 1000 : 0"
       inkscape:vp_x="0 : 0.5 : 1"
       sodipodi:type="inkscape:persp3d" /></defs><sodipodi:namedview
     pagecolor="#ffffff"
     bordercolor="#666666"
     borderopacity="1"
     objecttolerance="10"
     gridtolerance="10"
     guidetolerance="10"
     inkscape:pageopacity="0"
     inkscape:pageshadow="2"
     inkscape:window-width="1934"
     inkscape:window-height="1326"
     id="namedview4"
     showgrid="false"
     inkscape:zoom="1.8333333"
     inkscape:cx="112.09091"
     inkscape:cy="300.54546"
     inkscape:window-x="2938"
     inkscape:window-y="25"
     inkscape:window-maximized="0"
     inkscape:current-layer="g12"
     inkscape:showpageshadow="2"
     inkscape:pagecheckerboard="0"
     inkscape:deskcolor="#d1d1d1" /><g
     id="g12"
     inkscape:groupmode="layer"
     inkscape:label="ink_ext_XXXXXX"
     transform="matrix(1.25,0,0,-1.25,0,-520)"><path
       style="fill:#000000;fill-opacity:1;fill-rule:nonzero;stroke:none;stroke-width:0.064"
       d="m 16,-416 c -8.8365437,0 -16,-7.16346 -16,-16 0,-8.83655 7.1634562,-16 16,-16 8.836544,0 16,7.16345 16,16 0,8.83654 -7.163456,16 -16,16 z m 0,-1.28 c 7.310985,0 13.37643,-5.32986 14.524,-12.316 -0.942768,2.87809 -3.650775,4.956 -6.844,4.956 -1.844084,0 -3.526176,-0.69386 -4.8,-1.834 v 1.674 h -2.4 v -7.04 -7.04 l 2.4,1.12 v 0.554 c 1.273824,-1.14014 2.955916,-1.834 4.8,-1.834 3.29959,0 6.08079,2.21849 6.932,5.246 -0.885225,-7.28321 -7.089848,-12.926 -14.612,-12.926 -7.5221525,0 -13.726775,5.64279 -14.612,12.926 0.85121,-3.02751 3.63241,-5.246 6.932,-5.246 1.844084,0 3.526176,0.69386 4.8,1.834 v -0.554 l 2.4,-1.12 v 7.04 7.04 h -2.4 v -1.674 c -1.273824,1.14014 -2.955916,1.834 -4.8,1.834 -3.193225,0 -5.9012325,-2.07791 -6.844,-4.956 1.14757,6.98614 7.213015,12.316 14.524,12.316 z m -7.68,-9.76 c 2.650976,0 4.8,-2.14902 4.8,-4.8 0,-2.65098 -2.149024,-4.8 -4.8,-4.8 -2.6509762,0 -4.8,2.14903 -4.8,4.8 0,2.65098 2.1490238,4.8 4.8,4.8 z m 15.36,0 c 2.650976,0 4.8,-2.14902 4.8,-4.8 0,-2.65098 -2.149024,-4.8 -4.8,-4.8 -2.650976,0 -4.8,2.14903 -4.8,4.8 0,2.65098 2.149024,4.8 4.8,4.8 z"
       id="path18" /></g></svg>
