<?xml version="1.0" encoding="UTF-8" standalone="no"?>
<!-- Created with Inkscape (http://www.inkscape.org/) -->

<svg
   id="svg2"
   version="1.1"
   inkscape:version="1.2.2 (b0a84865, 2022-12-01)"
   width="32"
   height="32"
   xml:space="preserve"
   sodipodi:docname="aaw.svg"
   xmlns:inkscape="http://www.inkscape.org/namespaces/inkscape"
   xmlns:sodipodi="http://sodipodi.sourceforge.net/DTD/sodipodi-0.dtd"
   xmlns="http://www.w3.org/2000/svg"
   xmlns:svg="http://www.w3.org/2000/svg"
   xmlns:rdf="http://www.w3.org/1999/02/22-rdf-syntax-ns#"
   xmlns:cc="http://creativecommons.org/ns#"
   xmlns:dc="http://purl.org/dc/elements/1.1/"><metadata
     id="metadata8"><rdf:RDF><cc:Work
         rdf:about=""><dc:format>image/svg+xml</dc:format><dc:type
           rdf:resource="http://purl.org/dc/dcmitype/StillImage" /></cc:Work></rdf:RDF></metadata><defs
     id="defs6"><inkscape:perspective
       sodipodi:type="inkscape:persp3d"
       inkscape:vp_x="0 : 0.5 : 1"
       inkscape:vp_y="0 : 1000 : 0"
       inkscape:vp_z="1 : 0.5 : 1"
       inkscape:persp3d-origin="0.5 : 0.33333333 : 1"
       id="perspective10" /><inkscape:perspective
       id="perspective2834"
       inkscape:persp3d-origin="0.5 : 0.33333333 : 1"
       inkscape:vp_z="1 : 0.5 : 1"
       inkscape:vp_y="0 : 1000 : 0"
       inkscape:vp_x="0 : 0.5 : 1"
       sodipodi:type="inkscape:persp3d" /></defs><sodipodi:namedview
     pagecolor="#ffffff"
     bordercolor="#666666"
     borderopacity="1"
     objecttolerance="10"
     gridtolerance="10"
     guidetolerance="10"
     inkscape:pageopacity="0"
     inkscape:pageshadow="2"
     inkscape:window-width="1934"
     inkscape:window-height="1326"
     id="namedview4"
     showgrid="false"
     inkscape:zoom="1.8333333"
     inkscape:cx="205.90909"
     inkscape:cy="300.00001"
     inkscape:window-x="2868"
     inkscape:window-y="25"
     inkscape:window-maximized="0"
     inkscape:current-layer="g12"
     inkscape:showpageshadow="2"
     inkscape:pagecheckerboard="0"
     inkscape:deskcolor="#d1d1d1" /><g
     id="g12"
     inkscape:groupmode="layer"
     inkscape:label="ink_ext_XXXXXX"
     transform="matrix(1.25,0,0,-1.25,0,-536)"><path
       style="fill:#000000;fill-opacity:1;fill-rule:nonzero;stroke:none;stroke-width:0.0512"
       d="m 12.8,-428.8 c -7.069235,0 -12.8,-5.73077 -12.8,-12.8 0,-7.06924 5.730765,-12.8 12.8,-12.8 7.069235,0 12.8,5.73076 12.8,12.8 0,7.06923 -5.730765,12.8 -12.8,12.8 z m 0,-1.024 c 5.848788,0 10.701144,-4.26389 11.6192,-9.8528 -0.754214,2.30247 -2.92062,3.9648 -5.4752,3.9648 -1.475267,0 -2.820941,-0.55509 -3.84,-1.4672 v 1.3392 h -1.92 v -5.632 -5.632 l 1.92,0.896 v 0.4432 c 1.019059,-0.91211 2.364733,-1.4672 3.84,-1.4672 2.639672,0 4.864632,1.77479 5.5456,4.1968 -0.70818,-5.82657 -5.671878,-10.3408 -11.6896,-10.3408 -6.017722,0 -10.98142,4.51423 -11.6896,10.3408 0.680968,-2.42201 2.905928,-4.1968 5.5456,-4.1968 1.475267,0 2.820941,0.55509 3.84,1.4672 v -0.4432 l 1.92,-0.896 v 5.632 5.632 h -1.92 v -1.3392 c -1.019059,0.91211 -2.364733,1.4672 -3.84,1.4672 -2.55458,0 -4.720986,-1.66233 -5.4752,-3.9648 0.918056,5.58891 5.770412,9.8528 11.6192,9.8528 z m -6.144,-7.808 c 2.120781,0 3.84,-1.71922 3.84,-3.84 0,-2.12078 -1.719219,-3.84 -3.84,-3.84 -2.120781,0 -3.84,1.71922 -3.84,3.84 0,2.12078 1.719219,3.84 3.84,3.84 z m 12.288,0 c 2.120781,0 3.84,-1.71922 3.84,-3.84 0,-2.12078 -1.719219,-3.84 -3.84,-3.84 -2.120781,0 -3.84,1.71922 -3.84,3.84 0,2.12078 1.719219,3.84 3.84,3.84 z"
       id="path18" /></g></svg>
