<?xml version="1.0" encoding="UTF-8" standalone="no"?>
<!-- Generator: Adobe Illustrator 12.0.1, SVG Export Plug-In . SVG Version: 6.00 Build 51448)  -->

<svg
   version="1.1"
   width="24"
   height="24"
   viewBox="0 0 23.999999 23.999999"
   overflow="visible"
   enable-background="new 0 0 527.249 526.275"
   xml:space="preserve"
   id="svg1309"
   sodipodi:docname="sg01.svg"
   inkscape:version="1.3 (0e150ed, 2023-07-21)"
   xmlns:inkscape="http://www.inkscape.org/namespaces/inkscape"
   xmlns:sodipodi="http://sodipodi.sourceforge.net/DTD/sodipodi-0.dtd"
   xmlns="http://www.w3.org/2000/svg"
   xmlns:svg="http://www.w3.org/2000/svg"><defs
   id="defs1309" /><sodipodi:namedview
   id="namedview1309"
   pagecolor="#ffffff"
   bordercolor="#666666"
   borderopacity="1.0"
   inkscape:showpageshadow="2"
   inkscape:pageopacity="0.0"
   inkscape:pagecheckerboard="0"
   inkscape:deskcolor="#d1d1d1"
   inkscape:zoom="32.854779"
   inkscape:cx="11.992167"
   inkscape:cy="12.250881"
   inkscape:window-width="1432"
   inkscape:window-height="1372"
   inkscape:window-x="3302"
   inkscape:window-y="25"
   inkscape:window-maximized="0"
   inkscape:current-layer="svg1309"
   showgrid="false" />&#10;<g
   id="Origin"
   transform="matrix(1.2837657,0,0,1.2837657,-326.72479,-56.262957)">&#10;		<g
   id="path1932">&#10;			<path
   d="m 263.893,50.076 9.307,12.266 -4.537,0.006 c 0,0 0.533,-0.496 0.809,-0.811 0.662,-0.738 0.477,-1.133 -2.336,-5.029 -1.68,-2.326 -3.156,-4.227 -3.283,-4.227 -0.127,0 -1.604,1.9 -3.281,4.227 -2.814,3.896 -2.998,4.291 -2.34,5.029 0.273,0.307 0.693,0.803 0.693,0.803 l -4.42,0.002 z"
   id="path1" />&#10;		</g>&#10;		<g
   id="path1934">&#10;			<path
   d="m 265.375,46.643 c 0,0.824 -0.67,1.494 -1.494,1.494 -0.824,0 -1.494,-0.67 -1.494,-1.494 0,-0.824 0.67,-1.494 1.494,-1.494 0.824,0 1.494,0.669 1.494,1.494 z M 263.881,44 c -1.457,0 -2.641,1.186 -2.641,2.643 0,1.457 1.184,2.641 2.641,2.641 1.457,0 2.643,-1.184 2.643,-2.641 0,-1.457 -1.186,-2.643 -2.643,-2.643 z"
   id="path2" />&#10;		</g>&#10;	</g><g
   id="Symbols"
   transform="translate(472.29594,-82.347994)">&#10;	&#10;	&#10;	&#10;	&#10;	&#10;	&#10;	&#10;	&#10;	&#10;	&#10;	&#10;	&#10;	&#10;	&#10;	&#10;	&#10;	&#10;	&#10;	&#10;	&#10;	&#10;	&#10;	&#10;	&#10;	&#10;	&#10;	&#10;	&#10;	&#10;	&#10;	&#10;	&#10;	&#10;	&#10;	&#10;	&#10;	&#10;	&#10;	&#10;</g>&#10;&#10;&#10;&#10;&#10;&#10;</svg>
