<?xml version="1.0" encoding="UTF-8" standalone="no"?>
<!-- Generator: Adobe Illustrator 12.0.1, SVG Export Plug-In . SVG Version: 6.00 Build 51448)  -->

<svg
   version="1.1"
   width="23.999998"
   height="24"
   viewBox="0 0 23.999997 23.999999"
   overflow="visible"
   enable-background="new 0 0 527.249 526.275"
   xml:space="preserve"
   id="svg1309"
   sodipodi:docname="sg02.svg"
   inkscape:version="1.3 (0e150ed, 2023-07-21)"
   xmlns:inkscape="http://www.inkscape.org/namespaces/inkscape"
   xmlns:sodipodi="http://sodipodi.sourceforge.net/DTD/sodipodi-0.dtd"
   xmlns="http://www.w3.org/2000/svg"
   xmlns:svg="http://www.w3.org/2000/svg"><defs
   id="defs1309">&#10;		&#10;		&#10;		&#10;		&#10;	</defs><sodipodi:namedview
   id="namedview1309"
   pagecolor="#ffffff"
   bordercolor="#666666"
   borderopacity="1.0"
   inkscape:showpageshadow="2"
   inkscape:pageopacity="0.0"
   inkscape:pagecheckerboard="0"
   inkscape:deskcolor="#d1d1d1"
   inkscape:zoom="21.916669"
   inkscape:cx="11.999999"
   inkscape:cy="12.022813"
   inkscape:window-width="1392"
   inkscape:window-height="1212"
   inkscape:window-x="3344"
   inkscape:window-y="90"
   inkscape:window-maximized="0"
   inkscape:current-layer="svg1309" />&#10;<g
   id="g1"
   transform="matrix(0.0252264,0,0,0.0252264,3.2958312,10.193276)"><g
     id="path1929_12_"
     transform="matrix(58.978624,0,0,58.978624,-17281.457,-3219.7702)">&#10;			<polygon
   points="302.484,56.889 302.344,57.203 301.705,62.855 302.283,62.346 293.137,62.17 293.65,62.979 296.33,56.977 296.18,56.309 291.75,52.521 291.943,53.051 292.586,49.205 292.68,48.641 291.549,48.451 291.455,49.018 290.812,52.861 291.006,53.393 295.434,57.18 295.283,56.51 292.605,62.51 293.115,63.318 302.262,63.492 302.844,62.984 303.486,57.332 303.346,57.646 306.84,53.686 306.928,53.059 305.006,49.039 304.758,48.521 303.723,49.016 303.971,49.533 305.893,53.555 305.979,52.926 "
   id="polygon2" />&#10;		</g><g
     id="path2818_4_"
     transform="matrix(58.978624,0,0,58.978624,-17281.457,-3219.7702)">&#10;			<polygon
   points="303.533,56.801 302.963,56.756 295.738,56.172 295.164,56.127 295.074,57.27 295.645,57.314 302.869,57.898 303.441,57.943 "
   id="polygon3" />&#10;		</g><g
     id="path3705_2_"
     transform="matrix(58.978624,0,0,58.978624,-17281.457,-3219.7702)">&#10;			<path
   d="m 290.797,48.121 2.912,0.072 -1.73,1.385 z"
   id="path3" />&#10;		</g><g
     id="path3707_2_"
     transform="matrix(58.978624,0,0,58.978624,-17281.457,-3219.7702)">&#10;			<path
   d="m 302.623,48.121 h 2.68 l -0.986,1.631 z"
   id="path4" />&#10;		</g></g><g
   id="Symbols"
   transform="rotate(-9.2307692,111.47342,-1991.0524)">&#10;	&#10;	&#10;	&#10;	&#10;	&#10;	&#10;	&#10;	&#10;	&#10;	&#10;	&#10;	&#10;	&#10;	&#10;	&#10;	&#10;	&#10;	&#10;	&#10;	&#10;	&#10;	&#10;	&#10;	&#10;	&#10;	&#10;	&#10;	&#10;	&#10;	&#10;	&#10;	&#10;	&#10;	&#10;	&#10;	&#10;	&#10;	&#10;	&#10;</g>&#10;&#10;&#10;&#10;&#10;&#10;</svg>
