<?xml version="1.0" encoding="UTF-8" standalone="no"?>
<!-- Generator: Adobe Illustrator 12.0.1, SVG Export Plug-In . SVG Version: 6.00 Build 51448)  -->

<svg
   version="1.1"
   width="24"
   height="24"
   viewBox="0 0 23.999998 23.999999"
   overflow="visible"
   enable-background="new 0 0 527.249 526.275"
   xml:space="preserve"
   id="svg1309"
   sodipodi:docname="sg03.svg"
   inkscape:version="1.3 (0e150ed, 2023-07-21)"
   xmlns:inkscape="http://www.inkscape.org/namespaces/inkscape"
   xmlns:sodipodi="http://sodipodi.sourceforge.net/DTD/sodipodi-0.dtd"
   xmlns="http://www.w3.org/2000/svg"
   xmlns:svg="http://www.w3.org/2000/svg"><defs
   id="defs1309" /><sodipodi:namedview
   id="namedview1309"
   pagecolor="#ffffff"
   bordercolor="#666666"
   borderopacity="1.0"
   inkscape:showpageshadow="2"
   inkscape:pageopacity="0.0"
   inkscape:pagecheckerboard="0"
   inkscape:deskcolor="#d1d1d1"
   inkscape:zoom="47.208335"
   inkscape:cx="12.010591"
   inkscape:cy="12"
   inkscape:window-width="1968"
   inkscape:window-height="1284"
   inkscape:window-x="2898"
   inkscape:window-y="50"
   inkscape:window-maximized="0"
   inkscape:current-layer="Symbols" />&#10;<g
   id="Symbols"
   transform="rotate(-18.461538,16.215255,1032.0268)">&#10;	&#10;	&#10;	<g
   id="Virgo"
   transform="matrix(1.2748555,0,0,1.2748555,-86.520086,-18.96107)">&#10;		<g
   id="path5631">&#10;			<polygon
   points="329.83,64.1 329.34,64.309 324.525,70.213 324.164,70.656 325.055,71.383 325.416,70.938 330.23,65.035 329.74,65.244 335.434,65.705 336.004,65.752 336.098,64.607 335.525,64.561 "
   id="polygon4" />&#10;			<path
   d="m 325.123,59.92 4.564,0.797 c 0.027,0.002 6.811,0.84 6.811,0.84 l 0.568,0.07 0.141,-1.139 -0.568,-0.07 -6.783,-0.838 c 0.031,0.006 -4.535,-0.791 -4.535,-0.791 l -0.562,-0.098 -0.199,1.129 z"
   id="path5" />&#10;		</g>&#10;		<g
   id="path5633">&#10;			<polygon
   points="329.295,64.461 329.295,65.035 330.443,65.035 330.443,64.461 330.443,60.443 330.443,59.869 329.295,59.869 329.295,60.443 "
   id="polygon5" />&#10;		</g>&#10;		<g
   id="path5635">&#10;			<polygon
   points="337.785,56.834 337.611,57.379 333.973,68.854 334.375,68.471 332.406,68.973 331.979,69.475 331.893,70.354 332.75,70.904 334.717,69.775 334.816,69.703 338.961,65.977 339.041,65.211 337.322,62.867 336.986,62.404 336.061,63.082 336.398,63.545 338.117,65.889 338.193,65.125 334.049,68.852 334.148,68.779 332.18,69.91 333.035,70.461 333.121,69.584 332.693,70.084 334.658,69.582 335.064,69.197 338.707,57.727 338.877,57.182 "
   id="polygon6" />&#10;		</g>&#10;		<g
   id="path10068">&#10;			<path
   d="m 325.137,59.393 -0.732,-1.713 -0.73,2.805 z"
   id="path6" />&#10;		</g>&#10;		<g
   id="path10070">&#10;			<path
   d="m 325.014,70.576 -1.801,0.1 1.969,1.781 z"
   id="path7" />&#10;		</g>&#10;	</g>&#10;	&#10;	&#10;	&#10;	&#10;	&#10;	&#10;	&#10;	&#10;	&#10;	&#10;	&#10;	&#10;	&#10;	&#10;	&#10;	&#10;	&#10;	&#10;	&#10;	&#10;	&#10;	&#10;	&#10;	&#10;	&#10;	&#10;	&#10;	&#10;	&#10;	&#10;	&#10;	&#10;	&#10;	&#10;	&#10;	&#10;</g>&#10;&#10;&#10;&#10;&#10;&#10;</svg>
