<?xml version="1.0" encoding="UTF-8" standalone="no"?>
<!-- Generator: Adobe Illustrator 12.0.1, SVG Export Plug-In . SVG Version: 6.00 Build 51448)  -->

<svg
   version="1.1"
   width="24"
   height="24"
   viewBox="0 0 23.999998 23.999999"
   overflow="visible"
   enable-background="new 0 0 527.249 526.275"
   xml:space="preserve"
   id="svg1309"
   sodipodi:docname="sg04.svg"
   inkscape:version="1.3 (0e150ed, 2023-07-21)"
   xmlns:inkscape="http://www.inkscape.org/namespaces/inkscape"
   xmlns:sodipodi="http://sodipodi.sourceforge.net/DTD/sodipodi-0.dtd"
   xmlns="http://www.w3.org/2000/svg"
   xmlns:svg="http://www.w3.org/2000/svg"><defs
   id="defs1309" /><sodipodi:namedview
   id="namedview1309"
   pagecolor="#ffffff"
   bordercolor="#666666"
   borderopacity="1.0"
   inkscape:showpageshadow="2"
   inkscape:pageopacity="0.0"
   inkscape:pagecheckerboard="0"
   inkscape:deskcolor="#d1d1d1"
   inkscape:zoom="47.208335"
   inkscape:cx="11.989408"
   inkscape:cy="12"
   inkscape:window-width="1968"
   inkscape:window-height="1284"
   inkscape:window-x="2968"
   inkscape:window-y="25"
   inkscape:window-maximized="0"
   inkscape:current-layer="Symbols" />&#10;<g
   id="Symbols"
   transform="rotate(-27.692538,57.013172,772.17377)">&#10;	&#10;	&#10;	&#10;	<g
   id="Bootes"
   transform="matrix(1.3536905,0,0,1.3536905,-120.69672,-27.019645)">&#10;		<g
   id="path1929_9_">&#10;			<polygon
   points="366.805,75.738 367.4,74.76 366.912,74.459 362.135,71.547 361.646,71.25 361.047,72.229 361.535,72.527 366.314,75.441 "
   id="polygon7" />&#10;		</g>&#10;		<g
   id="path1931_8_">&#10;			<polygon
   points="359.807,80.646 359.688,85.715 360.588,85.258 355.52,81.762 355.365,82.781 360.551,81.148 360.92,80.791 363.602,73.1 363.791,72.559 362.705,72.182 362.518,72.723 359.838,80.412 360.207,80.055 355.023,81.688 354.869,82.703 359.936,86.201 360.836,85.742 360.951,80.672 360.852,80.984 365.453,74.285 365.779,73.811 364.834,73.164 364.508,73.635 359.906,80.336 "
   id="polygon8" />&#10;		</g>&#10;		<g
   id="path1933_6_">&#10;			<polygon
   points="362.727,67.643 362.162,68.641 362.66,68.926 370.178,73.178 370.674,73.461 371.238,72.463 370.74,72.18 363.227,67.928 "
   id="polygon9" />&#10;		</g>&#10;	</g>&#10;	&#10;	&#10;	&#10;	&#10;	&#10;	&#10;	&#10;	&#10;	&#10;	&#10;	&#10;	&#10;	&#10;	&#10;	&#10;	&#10;	&#10;	&#10;	&#10;	&#10;	&#10;	&#10;	&#10;	&#10;	&#10;	&#10;	&#10;	&#10;	&#10;	&#10;	&#10;	&#10;	&#10;	&#10;	&#10;</g>&#10;&#10;&#10;&#10;&#10;&#10;</svg>
