<?xml version="1.0" encoding="UTF-8" standalone="no"?>
<!-- Generator: Adobe Illustrator 12.0.1, SVG Export Plug-In . SVG Version: 6.00 Build 51448)  -->

<svg
   version="1.1"
   width="24"
   height="24"
   viewBox="0 0 23.999999 23.999999"
   overflow="visible"
   enable-background="new 0 0 527.249 526.275"
   xml:space="preserve"
   id="svg1309"
   sodipodi:docname="sg05.svg"
   inkscape:version="1.3 (0e150ed, 2023-07-21)"
   xmlns:inkscape="http://www.inkscape.org/namespaces/inkscape"
   xmlns:sodipodi="http://sodipodi.sourceforge.net/DTD/sodipodi-0.dtd"
   xmlns="http://www.w3.org/2000/svg"
   xmlns:svg="http://www.w3.org/2000/svg"
   xmlns:ns="&amp;#38;#38;#38;ns_sodipodi;"><defs
   id="defs1309" /><sodipodi:namedview
   id="namedview1309"
   pagecolor="#ffffff"
   bordercolor="#666666"
   borderopacity="1.0"
   inkscape:showpageshadow="2"
   inkscape:pageopacity="0.0"
   inkscape:pagecheckerboard="0"
   inkscape:deskcolor="#d1d1d1"
   inkscape:zoom="47.208332"
   inkscape:cx="11.989409"
   inkscape:cy="12"
   inkscape:window-width="1968"
   inkscape:window-height="1284"
   inkscape:window-x="2831"
   inkscape:window-y="45"
   inkscape:window-maximized="0"
   inkscape:current-layer="Symbols" />&#10;<g
   id="Symbols"
   transform="rotate(-36.923538,76.922289,629.01185)">&#10;	&#10;	&#10;	&#10;	&#10;	<g
   id="Centaurus"
   transform="matrix(1.0494428,0,0,1.0494428,-16.196153,-2.9947899)">&#10;		<g
   id="path1929_1_">&#10;			<path
   d="m 382.846,100.986 4.543,-0.408 -0.623,-0.607 -0.291,4.541 0.973,-0.371 -4.254,-4.137 z m 4.775,3.602 0.289,-4.545 -0.623,-0.607 -4.543,0.408 -0.352,0.982 4.256,4.137 z"
   id="path9" />&#10;		</g>&#10;		<g
   id="path1931_1_">&#10;			<polygon
   points="389.154,99.012 389.555,98.602 392.234,95.863 392.635,95.455 391.814,94.652 391.416,95.062 388.734,97.801 388.332,98.209 "
   id="polygon10" />&#10;		</g>&#10;		<g
   id="path1933_1_">&#10;			<polygon
   points="388.262,88.613 387.76,88.332 387.199,89.332 387.699,89.611 394.98,93.689 394.697,93.285 395.979,100.916 396.072,101.482 397.203,101.291 397.109,100.727 395.828,93.094 395.543,92.689 "
   id="polygon11" />&#10;		</g>&#10;		<g
   id="path1935">&#10;			<polygon
   points="395.402,93.684 395.695,93.193 399.307,87.135 399.602,86.643 398.617,86.055 398.322,86.545 394.711,92.605 394.416,93.098 "
   id="polygon12" />&#10;		</g>&#10;		<g
   id="path5479">&#10;			<path
   ns:nodetypes="cccc"
   d="m 387.98,89.113 -0.293,-1.691 -1.514,2.098 z"
   id="path12" />&#10;		</g>&#10;		<g
   id="path5481">&#10;			<path
   ns:nodetypes="cccc"
   d="m 398.758,87.014 -0.523,-1.629 2.211,1.34 z"
   id="path13" />&#10;		</g>&#10;		<g
   id="path5483">&#10;			<path
   ns:nodetypes="cccc"
   d="m 396.602,100.822 -1.107,1.281 2.506,-0.406 z"
   id="path14" />&#10;		</g>&#10;	</g>&#10;	&#10;	&#10;	&#10;	&#10;	&#10;	&#10;	&#10;	&#10;	&#10;	&#10;	&#10;	&#10;	&#10;	&#10;	&#10;	&#10;	&#10;	&#10;	&#10;	&#10;	&#10;	&#10;	&#10;	&#10;	&#10;	&#10;	&#10;	&#10;	&#10;	&#10;	&#10;	&#10;	&#10;	&#10;</g>&#10;&#10;&#10;&#10;&#10;&#10;</svg>
