<?xml version="1.0" encoding="UTF-8" standalone="no"?>
<!-- Generator: Adobe Illustrator 12.0.1, SVG Export Plug-In . SVG Version: 6.00 Build 51448)  -->

<svg
   version="1.1"
   width="24"
   height="24"
   viewBox="0 0 23.999999 23.999999"
   overflow="visible"
   enable-background="new 0 0 527.249 526.275"
   xml:space="preserve"
   id="svg1309"
   sodipodi:docname="sg06.svg"
   inkscape:version="1.3 (0e150ed, 2023-07-21)"
   xmlns:inkscape="http://www.inkscape.org/namespaces/inkscape"
   xmlns:sodipodi="http://sodipodi.sourceforge.net/DTD/sodipodi-0.dtd"
   xmlns="http://www.w3.org/2000/svg"
   xmlns:svg="http://www.w3.org/2000/svg"><defs
   id="defs1309" /><sodipodi:namedview
   id="namedview1309"
   pagecolor="#ffffff"
   bordercolor="#666666"
   borderopacity="1.0"
   inkscape:showpageshadow="2"
   inkscape:pageopacity="0.0"
   inkscape:pagecheckerboard="0"
   inkscape:deskcolor="#d1d1d1"
   inkscape:zoom="47.126053"
   inkscape:cx="12.010342"
   inkscape:cy="11.999732"
   inkscape:window-width="1968"
   inkscape:window-height="1284"
   inkscape:window-x="2973"
   inkscape:window-y="49"
   inkscape:window-maximized="0"
   inkscape:current-layer="Symbols" />&#10;<g
   id="Symbols"
   transform="rotate(-46.154538,91.466267,544.02806)">&#10;	&#10;	&#10;	&#10;	&#10;	&#10;	<g
   id="Libra"
   transform="matrix(1.168147,0,0,1.168147,-67.576155,-19.590668)">&#10;		<g
   id="path1929_4_">&#10;			<polygon
   points="413.928,126.037 423.482,125.863 423.928,125.635 429.289,118.529 429.309,117.867 424.066,109.941 423.324,109.748 417.557,112.719 418.035,112.699 411.859,110.193 411.33,109.979 410.898,111.039 411.43,111.258 417.605,113.762 418.082,113.738 423.852,110.77 423.109,110.576 428.354,118.498 428.373,117.836 423.014,124.945 423.463,124.717 413.904,124.891 413.486,125.086 412.262,126.486 411.883,126.916 412.746,127.672 413.125,127.24 414.35,125.842 "
   id="polygon14" />&#10;		</g>&#10;		<g
   id="path1931_4_">&#10;			<polygon
   points="422.781,110.729 422.84,124.766 422.842,125.34 423.988,125.336 423.986,124.764 423.928,110.723 423.926,110.148 422.779,110.154 "
   id="polygon15" />&#10;		</g>&#10;	</g>&#10;	&#10;	&#10;	&#10;	&#10;	&#10;	&#10;	&#10;	&#10;	&#10;	&#10;	&#10;	&#10;	&#10;	&#10;	&#10;	&#10;	&#10;	&#10;	&#10;	&#10;	&#10;	&#10;	&#10;	&#10;	&#10;	&#10;	&#10;	&#10;	&#10;	&#10;	&#10;	&#10;	&#10;</g>&#10;&#10;&#10;&#10;&#10;&#10;</svg>
