<?xml version="1.0" encoding="UTF-8" standalone="no"?>
<!-- Generator: Adobe Illustrator 12.0.1, SVG Export Plug-In . SVG Version: 6.00 Build 51448)  -->

<svg
   version="1.1"
   width="24"
   height="24"
   viewBox="0 0 23.999999 23.999998"
   overflow="visible"
   enable-background="new 0 0 527.249 526.275"
   xml:space="preserve"
   id="svg1309"
   sodipodi:docname="sg09.svg"
   inkscape:version="1.3 (0e150ed, 2023-07-21)"
   xmlns:inkscape="http://www.inkscape.org/namespaces/inkscape"
   xmlns:sodipodi="http://sodipodi.sourceforge.net/DTD/sodipodi-0.dtd"
   xmlns="http://www.w3.org/2000/svg"
   xmlns:svg="http://www.w3.org/2000/svg"
   xmlns:ns="&amp;#38;#38;#38;ns_sodipodi;"><defs
   id="defs1309" /><sodipodi:namedview
   id="namedview1309"
   pagecolor="#ffffff"
   bordercolor="#666666"
   borderopacity="1.0"
   inkscape:showpageshadow="2"
   inkscape:pageopacity="0.0"
   inkscape:pagecheckerboard="0"
   inkscape:deskcolor="#d1d1d1"
   inkscape:zoom="47.208332"
   inkscape:cx="11.989409"
   inkscape:cy="12"
   inkscape:window-width="1968"
   inkscape:window-height="1284"
   inkscape:window-x="2848"
   inkscape:window-y="54"
   inkscape:window-maximized="0"
   inkscape:current-layer="Symbols" />&#10;<g
   id="Symbols"
   transform="rotate(-73.847538,109.95834,418.08856)">&#10;	&#10;	&#10;	&#10;	&#10;	&#10;	&#10;	&#10;	&#10;	<g
   id="Scorpius"
   transform="matrix(1.1771974,0,0,1.1771974,-79.897549,-31.656819)">&#10;		<g
   id="path1929_5_">&#10;			<polygon
   points="467.223,212.561 467.764,212.166 461.904,212.209 462.426,212.533 461.084,209.77 461.004,210.391 462.889,208.17 463.26,207.734 462.387,206.992 462.014,207.428 460.131,209.648 460.053,210.27 461.391,213.031 461.912,213.357 467.773,213.312 468.314,212.922 469.988,207.855 469.916,208 472.639,204.02 472.33,204.246 477.605,202.656 478.156,202.49 477.824,201.393 477.273,201.559 471.998,203.148 471.693,203.373 468.971,207.352 468.898,207.494 "
   id="polygon19" />&#10;		</g>&#10;		<g
   id="path1931_3_">&#10;			<polygon
   points="478.344,202.184 478.322,201.934 477.232,198.5 477.059,197.953 475.967,198.301 476.141,198.848 477.23,202.281 477.207,202.029 476.662,206.049 476.584,206.617 477.723,206.771 477.797,206.201 "
   id="polygon20" />&#10;		</g>&#10;		<g
   id="path1933_2_">&#10;			<path
   ns:nodetypes="cccc"
   d="m 476.85,198.842 0.633,-1.676 -2.219,0.938 z"
   id="path20" />&#10;		</g>&#10;		<g
   id="path1935_1_">&#10;			<path
   ns:nodetypes="cccc"
   d="m 477.227,205.873 -1.252,1.197 2.135,0.311 z"
   id="path21" />&#10;		</g>&#10;		<g
   id="path1937">&#10;			<path
   ns:nodetypes="cccc"
   d="m 462.16,208.178 0.039,-1.969 1.676,1.674 z"
   id="path22" />&#10;		</g>&#10;	</g>&#10;	&#10;	&#10;	&#10;	&#10;	&#10;	&#10;	&#10;	&#10;	&#10;	&#10;	&#10;	&#10;	&#10;	&#10;	&#10;	&#10;	&#10;	&#10;	&#10;	&#10;	&#10;	&#10;	&#10;	&#10;	&#10;	&#10;	&#10;	&#10;	&#10;	&#10;</g>&#10;&#10;&#10;&#10;&#10;&#10;</svg>
