<?xml version="1.0" encoding="UTF-8" standalone="no"?>
<!-- Generator: Adobe Illustrator 12.0.1, SVG Export Plug-In . SVG Version: 6.00 Build 51448)  -->

<svg
   version="1.1"
   width="24"
   height="24"
   viewBox="0 0 24 23.999997"
   overflow="visible"
   enable-background="new 0 0 527.249 526.275"
   xml:space="preserve"
   id="svg1309"
   sodipodi:docname="sg10.svg"
   inkscape:version="1.3 (0e150ed, 2023-07-21)"
   xmlns:inkscape="http://www.inkscape.org/namespaces/inkscape"
   xmlns:sodipodi="http://sodipodi.sourceforge.net/DTD/sodipodi-0.dtd"
   xmlns="http://www.w3.org/2000/svg"
   xmlns:svg="http://www.w3.org/2000/svg"><defs
   id="defs1309" /><sodipodi:namedview
   id="namedview1309"
   pagecolor="#ffffff"
   bordercolor="#666666"
   borderopacity="1.0"
   inkscape:showpageshadow="2"
   inkscape:pageopacity="0.0"
   inkscape:pagecheckerboard="0"
   inkscape:deskcolor="#d1d1d1"
   inkscape:zoom="45.916667"
   inkscape:cx="12"
   inkscape:cy="11.989111"
   inkscape:window-width="1968"
   inkscape:window-height="1284"
   inkscape:window-x="2857"
   inkscape:window-y="25"
   inkscape:window-maximized="0"
   inkscape:current-layer="Symbols" />&#10;<g
   id="Symbols"
   transform="rotate(-83.078538,114.76072,392.23214)">&#10;	&#10;	&#10;	&#10;	&#10;	&#10;	&#10;	&#10;	&#10;	&#10;	<g
   id="Corona_Australis"
   transform="matrix(1.4992636,0,0,1.4992636,-231.88299,-116.91703)">&#10;		<g
   id="path1932_9_">&#10;			<polygon
   points="476.518,244.51 471.566,243.463 471.861,243.625 468.248,239.896 468.402,240.225 467.939,236.439 467.758,236.934 470.438,234.484 469.992,234.633 473.893,235.039 474.463,235.1 474.582,233.957 474.012,233.9 470.109,233.492 469.664,233.639 466.982,236.086 466.801,236.58 467.268,240.365 467.424,240.693 471.037,244.422 471.328,244.584 476.281,245.633 475.994,244.668 472.209,248.453 473.174,248.738 472.242,244.428 472.119,243.865 471,244.107 471.121,244.67 472.055,248.98 473.02,249.264 476.805,245.479 "
   id="polygon22" />&#10;		</g>&#10;		<g
   id="path2821_8_">&#10;			<path
   d="m 475.926,235.725 2.621,3.844 1.008,-0.107 1.805,-4.486 -0.613,-0.783 -4.43,0.643 z m 4.369,-1.178 -1.805,4.484 1.006,-0.107 -2.623,-3.844 -0.391,0.889 4.426,-0.641 z"
   id="path23" />&#10;		</g>&#10;	</g>&#10;	&#10;	&#10;	&#10;	&#10;	&#10;	&#10;	&#10;	&#10;	&#10;	&#10;	&#10;	&#10;	&#10;	&#10;	&#10;	&#10;	&#10;	&#10;	&#10;	&#10;	&#10;	&#10;	&#10;	&#10;	&#10;	&#10;	&#10;	&#10;	&#10;</g>&#10;&#10;&#10;&#10;&#10;&#10;</svg>
