<?xml version="1.0" encoding="UTF-8" standalone="no"?>
<!-- Generator: Adobe Illustrator 12.0.1, SVG Export Plug-In . SVG Version: 6.00 Build 51448)  -->

<svg
   version="1.1"
   width="24"
   height="24"
   viewBox="0 0 23.999999 23.999998"
   overflow="visible"
   enable-background="new 0 0 527.249 526.275"
   xml:space="preserve"
   id="svg1309"
   sodipodi:docname="sg11.svg"
   inkscape:version="1.3 (0e150ed, 2023-07-21)"
   xmlns:inkscape="http://www.inkscape.org/namespaces/inkscape"
   xmlns:sodipodi="http://sodipodi.sourceforge.net/DTD/sodipodi-0.dtd"
   xmlns="http://www.w3.org/2000/svg"
   xmlns:svg="http://www.w3.org/2000/svg"
   xmlns:ns="&amp;#38;#38;#38;ns_sodipodi;"><defs
   id="defs1309" /><sodipodi:namedview
   id="namedview1309"
   pagecolor="#ffffff"
   bordercolor="#666666"
   borderopacity="1.0"
   inkscape:showpageshadow="2"
   inkscape:pageopacity="0.0"
   inkscape:pagecheckerboard="0"
   inkscape:deskcolor="#d1d1d1"
   inkscape:zoom="47.208332"
   inkscape:cx="11.989409"
   inkscape:cy="12"
   inkscape:window-width="1968"
   inkscape:window-height="1284"
   inkscape:window-x="2740"
   inkscape:window-y="61"
   inkscape:window-maximized="0"
   inkscape:current-layer="Symbols" />&#10;<g
   id="Symbols"
   transform="rotate(-92.309538,117.40948,370.94058)">&#10;	&#10;	&#10;	&#10;	&#10;	&#10;	&#10;	&#10;	&#10;	&#10;	&#10;	<g
   id="Scutum"
   transform="matrix(1.3836181,0,0,1.3836181,-179.97265,-99.370085)">&#10;		<g
   id="path1932_1_">&#10;			<polygon
   points="478.158,272.752 478.266,272.705 468.469,275.805 468.453,276.891 479.002,280.617 479.764,280.021 479.096,273.363 479.035,272.791 477.895,272.906 477.955,273.477 478.621,280.133 479.383,279.535 468.834,275.811 468.816,276.896 478.613,273.801 478.721,273.754 484.33,270.613 484.832,270.334 484.271,269.332 483.77,269.611 "
   id="polygon23" />&#10;		</g>&#10;		<g
   id="path2821_1_">&#10;			<polygon
   points="475.266,271.207 474.729,271.41 475.131,272.484 475.668,272.283 477.68,271.527 478.215,271.326 477.811,270.254 477.277,270.455 "
   id="polygon24" />&#10;		</g>&#10;		<g
   id="path3708">&#10;			<path
   ns:nodetypes="cccc"
   d="m 484.176,269.945 -0.041,-1.719 1.883,2.891 z"
   id="path24" />&#10;		</g>&#10;	</g>&#10;	&#10;	&#10;	&#10;	&#10;	&#10;	&#10;	&#10;	&#10;	&#10;	&#10;	&#10;	&#10;	&#10;	&#10;	&#10;	&#10;	&#10;	&#10;	&#10;	&#10;	&#10;	&#10;	&#10;	&#10;	&#10;	&#10;	&#10;	&#10;</g>&#10;&#10;&#10;&#10;&#10;&#10;</svg>
