<?xml version="1.0" encoding="UTF-8" standalone="no"?>
<!-- Generator: Adobe Illustrator 12.0.1, SVG Export Plug-In . SVG Version: 6.00 Build 51448)  -->

<svg
   version="1.1"
   width="24"
   height="24"
   viewBox="0 0 23.999999 23.999999"
   overflow="visible"
   enable-background="new 0 0 527.249 526.275"
   xml:space="preserve"
   id="svg1309"
   sodipodi:docname="sg12.svg"
   inkscape:version="1.3 (0e150ed, 2023-07-21)"
   xmlns:inkscape="http://www.inkscape.org/namespaces/inkscape"
   xmlns:sodipodi="http://sodipodi.sourceforge.net/DTD/sodipodi-0.dtd"
   xmlns="http://www.w3.org/2000/svg"
   xmlns:svg="http://www.w3.org/2000/svg"
   xmlns:ns="&amp;#38;#38;#38;ns_sodipodi;"><defs
   id="defs1309" /><sodipodi:namedview
   id="namedview1309"
   pagecolor="#ffffff"
   bordercolor="#666666"
   borderopacity="1.0"
   inkscape:showpageshadow="2"
   inkscape:pageopacity="0.0"
   inkscape:pagecheckerboard="0"
   inkscape:deskcolor="#d1d1d1"
   inkscape:zoom="47.208335"
   inkscape:cx="11.989408"
   inkscape:cy="12"
   inkscape:window-width="1968"
   inkscape:window-height="1284"
   inkscape:window-x="2916"
   inkscape:window-y="41"
   inkscape:window-maximized="0"
   inkscape:current-layer="Symbols" />&#10;<g
   id="Symbols"
   transform="rotate(-101.54054,120.43503,351.37365)">&#10;	&#10;	&#10;	&#10;	&#10;	&#10;	&#10;	&#10;	&#10;	&#10;	&#10;	&#10;	<g
   id="Sagittarius"
   transform="matrix(1.2923218,0,0,1.2923218,-136.41234,-85.409335)">&#10;		<g
   id="path1932_4_">&#10;			<polygon
   points="476.215,305.654 479.105,310.637 480.051,310.705 482.438,307.689 482.457,307.006 478.688,301.605 477.715,301.658 476,304.799 476.244,304.559 474.74,305.314 475.004,305.254 465.457,305.086 465.004,305.299 463.621,307.016 463.541,307.604 466.223,313.758 466.732,314.104 468.449,314.146 468.059,313.977 469.23,315.15 469.635,315.557 470.445,314.744 470.041,314.34 468.869,313.166 468.477,313 466.76,312.955 467.271,313.301 464.592,307.146 464.516,307.736 465.896,306.018 465.439,306.232 474.984,306.4 475.252,306.34 476.758,305.584 477.006,305.348 478.721,302.207 477.748,302.262 481.518,307.662 481.537,306.977 479.152,309.992 480.098,310.061 477.207,305.078 476.92,304.582 475.928,305.158 "
   id="polygon25" />&#10;		</g>&#10;		<g
   id="path2821_3_">&#10;			<path
   ns:nodetypes="ccccc"
   d="m 468.463,303.23 2.18,2.598 1.213,-1.51 -2.807,-1.883 z"
   id="path25" />&#10;		</g>&#10;	</g>&#10;	&#10;	&#10;	&#10;	&#10;	&#10;	&#10;	&#10;	&#10;	&#10;	&#10;	&#10;	&#10;	&#10;	&#10;	&#10;	&#10;	&#10;	&#10;	&#10;	&#10;	&#10;	&#10;	&#10;	&#10;	&#10;	&#10;	&#10;</g>&#10;&#10;&#10;&#10;&#10;&#10;</svg>
