<?xml version="1.0" encoding="UTF-8" standalone="no"?>
<!-- Generator: Adobe Illustrator 12.0.1, SVG Export Plug-In . SVG Version: 6.00 Build 51448)  -->

<svg
   version="1.1"
   width="24"
   height="23.999998"
   viewBox="0 0 23.999999 23.999997"
   overflow="visible"
   enable-background="new 0 0 527.249 526.275"
   xml:space="preserve"
   id="svg1309"
   sodipodi:docname="sg14.svg"
   inkscape:version="1.3 (0e150ed, 2023-07-21)"
   xmlns:inkscape="http://www.inkscape.org/namespaces/inkscape"
   xmlns:sodipodi="http://sodipodi.sourceforge.net/DTD/sodipodi-0.dtd"
   xmlns="http://www.w3.org/2000/svg"
   xmlns:svg="http://www.w3.org/2000/svg"
   xmlns:ns="&amp;#38;#38;#38;ns_sodipodi;"><defs
   id="defs1309" /><sodipodi:namedview
   id="namedview1309"
   pagecolor="#ffffff"
   bordercolor="#666666"
   borderopacity="1.0"
   inkscape:showpageshadow="2"
   inkscape:pageopacity="0.0"
   inkscape:pagecheckerboard="0"
   inkscape:deskcolor="#d1d1d1"
   inkscape:zoom="47.208335"
   inkscape:cx="12.010591"
   inkscape:cy="11.999999"
   inkscape:window-width="1968"
   inkscape:window-height="1284"
   inkscape:window-x="2954"
   inkscape:window-y="42"
   inkscape:window-maximized="0"
   inkscape:current-layer="Symbols" />&#10;<g
   id="Symbols"
   transform="rotate(-120.00254,124.66939,320.28133)">&#10;	&#10;	&#10;	&#10;	&#10;	&#10;	&#10;	&#10;	&#10;	&#10;	&#10;	&#10;	&#10;	&#10;	<g
   id="Microscopium"
   transform="matrix(1.1239043,0,0,1.1239043,-56.073873,-42.739221)">&#10;		<g
   id="path6479_2_">&#10;			<polygon
   points="440.988,379.059 457.775,376.256 458.342,376.162 458.154,375.031 457.586,375.125 440.799,377.93 441.451,378.619 444.971,362.584 445.092,362.023 443.973,361.779 443.852,362.338 440.332,378.373 "
   id="polygon27" />&#10;		</g>&#10;		<g
   id="path6481_2_">&#10;			<path
   d="m 449.965,365.004 -1.256,5.148 0.65,0.703 5.316,-0.879 0.324,-0.963 -4.062,-4.268 z m 4.523,3.84 -5.316,0.879 0.652,0.703 1.256,-5.15 -0.975,0.26 4.061,4.27 z"
   id="path28" />&#10;		</g>&#10;		<g
   id="path9138_2_">&#10;			<path
   ns:nodetypes="cccc"
   d="m 444.283,362.754 -1.045,-1.676 2.928,0.879 z"
   id="path29" />&#10;		</g>&#10;		<g
   id="path10025_2_">&#10;			<path
   ns:nodetypes="cccc"
   d="m 457.012,375.775 1.131,-1.801 0.543,3.055 z"
   id="path30" />&#10;		</g>&#10;	</g>&#10;	&#10;	&#10;	&#10;	&#10;	&#10;	&#10;	&#10;	&#10;	&#10;	&#10;	&#10;	&#10;	&#10;	&#10;	&#10;	&#10;	&#10;	&#10;	&#10;	&#10;	&#10;	&#10;	&#10;	&#10;	&#10;</g>&#10;&#10;&#10;&#10;&#10;&#10;</svg>
