<?xml version="1.0" encoding="UTF-8" standalone="no"?>
<!-- Generator: Adobe Illustrator 12.0.1, SVG Export Plug-In . SVG Version: 6.00 Build 51448)  -->

<svg
   version="1.1"
   width="24"
   height="24"
   viewBox="0 0 24 23.999999"
   overflow="visible"
   enable-background="new 0 0 527.249 526.275"
   xml:space="preserve"
   id="svg1309"
   sodipodi:docname="sg16.svg"
   inkscape:version="1.3 (0e150ed, 2023-07-21)"
   xmlns:inkscape="http://www.inkscape.org/namespaces/inkscape"
   xmlns:sodipodi="http://sodipodi.sourceforge.net/DTD/sodipodi-0.dtd"
   xmlns="http://www.w3.org/2000/svg"
   xmlns:svg="http://www.w3.org/2000/svg"><defs
   id="defs1309" /><sodipodi:namedview
   id="namedview1309"
   pagecolor="#ffffff"
   bordercolor="#666666"
   borderopacity="1.0"
   inkscape:showpageshadow="2"
   inkscape:pageopacity="0.0"
   inkscape:pagecheckerboard="0"
   inkscape:deskcolor="#d1d1d1"
   inkscape:zoom="47.208334"
   inkscape:cx="12.010591"
   inkscape:cy="12"
   inkscape:window-width="1968"
   inkscape:window-height="1284"
   inkscape:window-x="3000"
   inkscape:window-y="25"
   inkscape:window-maximized="0"
   inkscape:current-layer="Symbols" />&#10;<g
   id="Symbols"
   transform="rotate(-138.46454,127.92011,297.11253)">&#10;	&#10;	&#10;	&#10;	&#10;	&#10;	&#10;	&#10;	&#10;	&#10;	&#10;	&#10;	&#10;	&#10;	&#10;	&#10;	<g
   id="Piscis_Austrinus"
   transform="matrix(1.6603837,0,0,1.6603837,-268.3696,-274.2563)">&#10;		<g
   id="path11909_2_">&#10;			<path
   d="m 409.381,428.848 v 1.842 l 0.27,-0.484 -4.354,2.721 0.596,-0.008 -4.9,-2.891 0.277,0.42 -0.754,-5.611 -0.037,0.289 1.801,-4.479 -0.127,0.193 2.303,-2.305 -0.404,0.168 h 1.213 l -0.502,-0.297 2.635,4.814 -0.068,-0.277 v 3.014 l 0.105,0.334 2.051,2.891 z m -0.906,-2.891 v -3.014 l -0.07,-0.275 -2.637,-4.814 -0.504,-0.297 h -1.213 l -0.406,0.168 -2.303,2.303 -0.127,0.193 -1.801,4.477 -0.035,0.291 0.752,5.611 0.279,0.418 4.896,2.887 0.596,-0.004 4.355,-2.723 0.27,-0.488 v -1.842 l -0.107,-0.33 -2.053,-2.891 z"
   id="path31" />&#10;		</g>&#10;		<g
   id="path12796_2_">&#10;			<polygon
   points="410.146,430.008 410.066,428.865 409.492,428.902 401.205,429.49 400.631,429.531 400.713,430.676 401.285,430.635 409.576,430.051 "
   id="polygon31" />&#10;		</g>&#10;	</g>&#10;	&#10;	&#10;	&#10;	&#10;	&#10;	&#10;	&#10;	&#10;	&#10;	&#10;	&#10;	&#10;	&#10;	&#10;	&#10;	&#10;	&#10;	&#10;	&#10;	&#10;	&#10;	&#10;	&#10;</g>&#10;&#10;&#10;&#10;&#10;&#10;</svg>
