<?xml version="1.0" encoding="UTF-8" standalone="no"?>
<!-- Generator: Adobe Illustrator 12.0.1, SVG Export Plug-In . SVG Version: 6.00 Build 51448)  -->

<svg
   version="1.1"
   width="24"
   height="24"
   viewBox="0 0 23.999999 23.999999"
   overflow="visible"
   enable-background="new 0 0 527.249 526.275"
   xml:space="preserve"
   id="svg1309"
   sodipodi:docname="sg18.svg"
   inkscape:version="1.3 (0e150ed, 2023-07-21)"
   xmlns:inkscape="http://www.inkscape.org/namespaces/inkscape"
   xmlns:sodipodi="http://sodipodi.sourceforge.net/DTD/sodipodi-0.dtd"
   xmlns="http://www.w3.org/2000/svg"
   xmlns:svg="http://www.w3.org/2000/svg"><defs
   id="defs1309" /><sodipodi:namedview
   id="namedview1309"
   pagecolor="#ffffff"
   bordercolor="#666666"
   borderopacity="1.0"
   inkscape:showpageshadow="2"
   inkscape:pageopacity="0.0"
   inkscape:pagecheckerboard="0"
   inkscape:deskcolor="#d1d1d1"
   inkscape:zoom="45.916667"
   inkscape:cx="12"
   inkscape:cy="12.010889"
   inkscape:window-width="1968"
   inkscape:window-height="1284"
   inkscape:window-x="2907"
   inkscape:window-y="29"
   inkscape:window-maximized="0"
   inkscape:current-layer="Symbols" />&#10;<g
   id="Symbols"
   transform="rotate(-156.92654,133.76385,273.3145)">&#10;	&#10;	&#10;	&#10;	&#10;	&#10;	&#10;	&#10;	&#10;	&#10;	&#10;	&#10;	&#10;	&#10;	&#10;	&#10;	&#10;	&#10;	<g
   id="Aquarius"
   transform="matrix(1.2031053,0,0,1.2031053,-70.292342,-87.42252)">&#10;		<g
   id="path1932_3_">&#10;			<polygon
   points="343.252,455.068 338.707,457.807 338.217,458.102 338.809,459.084 339.299,458.787 343.844,456.051 343.543,456.133 349.951,456.191 349.629,456.088 358.137,461.973 358.607,462.299 359.262,461.355 358.789,461.029 350.283,455.145 349.963,455.043 343.551,454.986 "
   id="polygon33" />&#10;		</g>&#10;		<g
   id="path2821_2_">&#10;			<polygon
   points="349.207,464.283 350.35,464.17 350.293,463.6 349.885,459.406 349.805,459.756 351.381,457.137 351.676,456.643 350.693,456.053 350.396,456.547 348.824,459.166 348.744,459.52 349.152,463.713 "
   id="polygon34" />&#10;		</g>&#10;		<g
   id="path3708_1_">&#10;			<polygon
   points="342.656,460.211 340.791,457.881 340.434,457.432 339.537,458.148 339.895,458.598 341.76,460.928 341.633,460.578 341.693,463.9 341.867,463.479 339.885,465.4 339.473,465.801 340.273,466.621 340.684,466.225 342.664,464.301 342.84,463.881 342.779,460.559 "
   id="polygon35" />&#10;		</g>&#10;	</g>&#10;	&#10;	&#10;	&#10;	&#10;	&#10;	&#10;	&#10;	&#10;	&#10;	&#10;	&#10;	&#10;	&#10;	&#10;	&#10;	&#10;	&#10;	&#10;	&#10;	&#10;	&#10;</g>&#10;&#10;&#10;&#10;&#10;&#10;</svg>
