<?xml version="1.0" encoding="UTF-8" standalone="no"?>
<!-- Generator: Adobe Illustrator 12.0.1, SVG Export Plug-In . SVG Version: 6.00 Build 51448)  -->

<svg
   version="1.1"
   width="24"
   height="24"
   viewBox="0 0 23.999999 23.999999"
   overflow="visible"
   enable-background="new 0 0 527.249 526.275"
   xml:space="preserve"
   id="svg1309"
   sodipodi:docname="sg19.svg"
   inkscape:version="1.3 (0e150ed, 2023-07-21)"
   xmlns:inkscape="http://www.inkscape.org/namespaces/inkscape"
   xmlns:sodipodi="http://sodipodi.sourceforge.net/DTD/sodipodi-0.dtd"
   xmlns="http://www.w3.org/2000/svg"
   xmlns:svg="http://www.w3.org/2000/svg"><defs
   id="defs1309" /><sodipodi:namedview
   id="namedview1309"
   pagecolor="#ffffff"
   bordercolor="#666666"
   borderopacity="1.0"
   inkscape:showpageshadow="2"
   inkscape:pageopacity="0.0"
   inkscape:pagecheckerboard="0"
   inkscape:deskcolor="#d1d1d1"
   inkscape:zoom="46.421688"
   inkscape:cx="11.998702"
   inkscape:cy="12.009473"
   inkscape:window-width="1968"
   inkscape:window-height="1284"
   inkscape:window-x="2889"
   inkscape:window-y="91"
   inkscape:window-maximized="0"
   inkscape:current-layer="Symbols" />&#10;<g
   id="Symbols"
   transform="rotate(-166.15754,133.39482,262.10084)">&#10;	&#10;	&#10;	&#10;	&#10;	&#10;	&#10;	&#10;	&#10;	&#10;	&#10;	&#10;	&#10;	&#10;	&#10;	&#10;	&#10;	&#10;	&#10;	<g
   id="Pegasus"
   transform="matrix(1.3487393,0,0,1.3487393,-111.68212,-160.86708)">&#10;		<g
   id="path4681">&#10;			<polygon
   points="306.418,479.723 306.418,480.297 307.562,480.297 307.562,479.723 307.562,476.4 307.385,476.816 312.801,471.689 312.98,471.318 313.562,463.861 313.605,463.291 312.465,463.199 312.42,463.771 311.836,471.23 312.012,470.857 306.596,475.984 306.418,476.4 "
   id="polygon36" />&#10;		</g>&#10;		<g
   id="path5568">&#10;			<polygon
   points="319.604,471.891 319.756,471.34 318.648,471.033 318.498,471.588 317.855,473.918 318.082,473.602 312.078,477.795 311.836,478.252 311.775,480.814 311.764,481.389 312.91,481.416 312.922,480.842 312.982,478.277 312.738,478.734 318.738,474.541 318.961,474.221 "
   id="polygon37" />&#10;		</g>&#10;		<g
   id="path6455">&#10;			<polygon
   points="312.789,470.855 312.254,470.648 311.842,471.721 312.377,471.924 317.68,473.965 318.213,474.172 318.625,473.1 318.09,472.893 "
   id="polygon38" />&#10;		</g>&#10;		<g
   id="path7342">&#10;			<path
   d="m 317.943,467.418 h 2.738 l 0.469,-0.9 -1.518,-2.156 -0.965,0.047 -1.223,2.152 z m 0.752,-2.398 1.518,2.156 0.469,-0.904 h -2.738 l 0.5,0.857 1.221,-2.156 z"
   id="path38" />&#10;		</g>&#10;	</g>&#10;	&#10;	&#10;	&#10;	&#10;	&#10;	&#10;	&#10;	&#10;	&#10;	&#10;	&#10;	&#10;	&#10;	&#10;	&#10;	&#10;	&#10;	&#10;	&#10;	&#10;</g>&#10;&#10;&#10;&#10;&#10;&#10;</svg>
