<?xml version="1.0" encoding="UTF-8" standalone="no"?>
<!-- Generator: Adobe Illustrator 12.0.1, SVG Export Plug-In . SVG Version: 6.00 Build 51448)  -->

<svg
   version="1.1"
   width="24"
   height="24"
   viewBox="0 0 24 23.999999"
   overflow="visible"
   enable-background="new 0 0 527.249 526.275"
   xml:space="preserve"
   id="svg1309"
   sodipodi:docname="sg21.svg"
   inkscape:version="1.3 (0e150ed, 2023-07-21)"
   xmlns:inkscape="http://www.inkscape.org/namespaces/inkscape"
   xmlns:sodipodi="http://sodipodi.sourceforge.net/DTD/sodipodi-0.dtd"
   xmlns="http://www.w3.org/2000/svg"
   xmlns:svg="http://www.w3.org/2000/svg"><defs
   id="defs1309" /><sodipodi:namedview
   id="namedview1309"
   pagecolor="#ffffff"
   bordercolor="#666666"
   borderopacity="1.0"
   inkscape:showpageshadow="2"
   inkscape:pageopacity="0.0"
   inkscape:pagecheckerboard="0"
   inkscape:deskcolor="#d1d1d1"
   inkscape:zoom="47.208333"
   inkscape:cx="11.989409"
   inkscape:cy="12"
   inkscape:window-width="1968"
   inkscape:window-height="1284"
   inkscape:window-x="2696"
   inkscape:window-y="111"
   inkscape:window-maximized="0"
   inkscape:current-layer="Symbols" />&#10;<g
   id="Symbols"
   transform="rotate(175.38046,137.40993,240.90883)">&#10;	&#10;	&#10;	&#10;	&#10;	&#10;	&#10;	&#10;	&#10;	&#10;	&#10;	&#10;	&#10;	&#10;	&#10;	&#10;	&#10;	&#10;	&#10;	&#10;	&#10;	<g
   id="Pisces"
   transform="matrix(1.281539,0,0,1.281539,-73.438094,-131.90056)">&#10;		<g
   id="path9182">&#10;			<path
   d="m 250.334,470.201 c 0,0.838 -0.682,1.521 -1.52,1.521 -0.838,0 -1.52,-0.684 -1.52,-1.521 0,-0.836 0.682,-1.52 1.52,-1.52 0.838,0 1.52,0.684 1.52,1.52 z m -1.52,-2.666 c -1.469,0 -2.666,1.195 -2.666,2.666 0,1.473 1.197,2.67 2.666,2.67 1.471,0 2.666,-1.197 2.666,-2.67 0,-1.471 -1.195,-2.666 -2.666,-2.666 z"
   id="path39" />&#10;		</g>&#10;		<g
   id="path10069">&#10;			<polygon
   points="249.867,476.189 249.967,476.434 249.297,472.33 249.205,471.764 248.072,471.949 248.166,472.514 248.836,476.617 248.934,476.857 251.238,480.08 251.299,480.152 254.9,483.754 255.277,482.775 242.289,483.361 241.916,483.521 240.635,484.758 241.328,484.68 239.209,483.4 239.197,484.391 241.322,483.178 240.615,483.066 241.652,484.197 242.039,484.619 242.885,483.846 242.498,483.42 241.461,482.293 240.754,482.182 238.629,483.395 238.617,484.385 240.736,485.662 241.432,485.582 242.713,484.348 242.34,484.506 255.33,483.922 255.711,482.943 252.109,479.342 252.17,479.414 "
   id="polygon40" />&#10;		</g>&#10;	</g>&#10;	&#10;	&#10;	&#10;	&#10;	&#10;	&#10;	&#10;	&#10;	&#10;	&#10;	&#10;	&#10;	&#10;	&#10;	&#10;	&#10;	&#10;	&#10;</g>&#10;&#10;&#10;&#10;&#10;&#10;</svg>
