<?xml version="1.0" encoding="UTF-8" standalone="no"?>
<!-- Generator: Adobe Illustrator 12.0.1, SVG Export Plug-In . SVG Version: 6.00 Build 51448)  -->

<svg
   version="1.1"
   width="24"
   height="24"
   viewBox="0 0 23.999998 23.999999"
   overflow="visible"
   enable-background="new 0 0 527.249 526.275"
   xml:space="preserve"
   id="svg1309"
   sodipodi:docname="sg22.svg"
   inkscape:version="1.3 (0e150ed, 2023-07-21)"
   xmlns:inkscape="http://www.inkscape.org/namespaces/inkscape"
   xmlns:sodipodi="http://sodipodi.sourceforge.net/DTD/sodipodi-0.dtd"
   xmlns="http://www.w3.org/2000/svg"
   xmlns:svg="http://www.w3.org/2000/svg"
   xmlns:ns="&amp;#38;#38;#38;ns_sodipodi;"><defs
   id="defs1309" /><sodipodi:namedview
   id="namedview1309"
   pagecolor="#ffffff"
   bordercolor="#666666"
   borderopacity="1.0"
   inkscape:showpageshadow="2"
   inkscape:pageopacity="0.0"
   inkscape:pagecheckerboard="0"
   inkscape:deskcolor="#d1d1d1"
   inkscape:zoom="47.208332"
   inkscape:cx="11.989409"
   inkscape:cy="12"
   inkscape:window-width="1968"
   inkscape:window-height="1284"
   inkscape:window-x="2981"
   inkscape:window-y="25"
   inkscape:window-maximized="0"
   inkscape:current-layer="Symbols" />&#10;<g
   id="Symbols"
   transform="rotate(166.14946,137.40332,230.77037)">&#10;	&#10;	&#10;	&#10;	&#10;	&#10;	&#10;	&#10;	&#10;	&#10;	&#10;	&#10;	&#10;	&#10;	&#10;	&#10;	&#10;	&#10;	&#10;	&#10;	&#10;	&#10;	<g
   id="Andromeda"
   transform="matrix(1.3851778,0,0,1.3851778,-88.04068,-179.57422)">&#10;		<g
   id="path10989_2_">&#10;			<polygon
   points="216.566,475.117 217.141,475.09 217.084,473.945 216.512,473.973 210.648,474.266 211.24,474.949 211.951,471.348 211.945,471.1 211.402,468.922 211.375,469.285 212.295,467.107 212.26,466.588 211.088,464.623 211.098,465.188 212.312,462.928 211.832,462.084 209.822,461.998 209.49,462.088 208.109,462.965 207.971,463.809 209.016,465.107 208.967,464.461 207.922,466.26 207.91,466.814 209.123,469.121 209.113,468.605 208.15,470.615 208.154,471.117 209.285,473.377 209.256,472.934 208.545,474.984 208.547,475.365 208.965,476.537 209.217,476.842 216.459,481.07 217.322,480.607 217.865,470.893 217.898,470.322 216.754,470.256 216.721,470.83 216.174,480.541 217.037,480.078 209.795,475.852 210.045,476.152 209.627,474.98 209.629,475.359 210.34,473.311 210.311,472.865 209.18,470.604 209.186,471.107 210.148,469.098 210.139,468.586 208.924,466.279 208.912,466.838 209.959,465.037 209.91,464.389 208.863,463.09 208.725,463.934 210.105,463.055 209.775,463.145 211.783,463.227 211.303,462.383 210.09,464.645 210.102,465.211 211.273,467.176 211.238,466.66 210.316,468.84 210.289,469.199 210.834,471.375 210.826,471.127 210.115,474.729 210.707,475.412 "
   id="polygon41" />&#10;		</g>&#10;		<g
   id="path11876_2_">&#10;			<path
   ns:nodetypes="cccc"
   d="m 217.291,471.238 -1.213,-1.131 h 2.553 z"
   id="path41" />&#10;		</g>&#10;	</g>&#10;	&#10;	&#10;	&#10;	&#10;	&#10;	&#10;	&#10;	&#10;	&#10;	&#10;	&#10;	&#10;	&#10;	&#10;	&#10;	&#10;	&#10;</g>&#10;&#10;&#10;&#10;&#10;&#10;</svg>
