<?xml version="1.0" encoding="UTF-8" standalone="no"?>
<!-- Generator: Adobe Illustrator 12.0.1, SVG Export Plug-In . SVG Version: 6.00 Build 51448)  -->

<svg
   version="1.1"
   width="24"
   height="24"
   viewBox="0 0 24 23.999999"
   overflow="visible"
   enable-background="new 0 0 527.249 526.275"
   xml:space="preserve"
   id="svg1309"
   sodipodi:docname="sg25.svg"
   inkscape:version="1.3 (0e150ed, 2023-07-21)"
   xmlns:inkscape="http://www.inkscape.org/namespaces/inkscape"
   xmlns:sodipodi="http://sodipodi.sourceforge.net/DTD/sodipodi-0.dtd"
   xmlns="http://www.w3.org/2000/svg"
   xmlns:svg="http://www.w3.org/2000/svg"><defs
   id="defs1309" /><sodipodi:namedview
   id="namedview1309"
   pagecolor="#ffffff"
   bordercolor="#666666"
   borderopacity="1.0"
   inkscape:showpageshadow="2"
   inkscape:pageopacity="0.0"
   inkscape:pagecheckerboard="0"
   inkscape:deskcolor="#d1d1d1"
   inkscape:zoom="47.208332"
   inkscape:cx="11.989409"
   inkscape:cy="12"
   inkscape:window-width="1968"
   inkscape:window-height="1284"
   inkscape:window-x="2974"
   inkscape:window-y="71"
   inkscape:window-maximized="0"
   inkscape:current-layer="Symbols" />&#10;<g
   id="Symbols"
   transform="rotate(138.45646,143.09629,198.0317)">&#10;	&#10;	&#10;	&#10;	&#10;	&#10;	&#10;	&#10;	&#10;	&#10;	&#10;	&#10;	&#10;	&#10;	&#10;	&#10;	&#10;	&#10;	&#10;	&#10;	&#10;	&#10;	&#10;	&#10;	&#10;	<g
   id="Perseus"
   transform="matrix(1.1941691,0,0,1.1941691,-27.763716,-83.581491)">&#10;		<g
   id="path16551">&#10;			<polygon
   points="116.646,422.189 116.77,421.85 114.047,425.324 113.926,425.701 114.178,431.564 114.461,432.033 116.471,433.207 116.967,433.494 117.545,432.504 117.049,432.215 115.039,431.043 115.322,431.514 115.072,425.652 114.951,426.029 117.67,422.555 117.793,422.217 117.877,418.742 117.486,419.271 126.111,416.381 125.355,415.83 125.271,420.518 125.299,420.697 128.102,429.783 128.717,429.043 124.781,428.584 125.283,429.217 125.703,425.533 125.703,425.395 125.115,420.791 125.043,420.223 123.906,420.365 123.977,420.938 124.564,425.541 124.562,425.404 124.145,429.088 124.646,429.723 128.582,430.182 129.197,429.443 126.393,420.357 126.418,420.537 126.502,415.85 125.748,415.295 117.123,418.186 116.73,418.715 "
   id="polygon44" />&#10;		</g>&#10;		<g
   id="path17438">&#10;			<polygon
   points="126.051,419.881 125.477,419.914 117.48,420.375 116.906,420.408 116.973,421.551 117.547,421.518 125.543,421.059 126.117,421.025 "
   id="polygon45" />&#10;		</g>&#10;	</g>&#10;	&#10;	&#10;	&#10;	&#10;	&#10;	&#10;	&#10;	&#10;	&#10;	&#10;	&#10;	&#10;	&#10;	&#10;</g>&#10;&#10;&#10;&#10;&#10;&#10;</svg>
