<?xml version="1.0" encoding="UTF-8" standalone="no"?>
<!-- Generator: Adobe Illustrator 12.0.1, SVG Export Plug-In . SVG Version: 6.00 Build 51448)  -->

<svg
   version="1.1"
   width="24"
   height="24"
   viewBox="0 0 23.999999 23.999998"
   overflow="visible"
   enable-background="new 0 0 527.249 526.275"
   xml:space="preserve"
   id="svg1309"
   sodipodi:docname="sg26.svg"
   inkscape:version="1.3 (0e150ed, 2023-07-21)"
   xmlns:inkscape="http://www.inkscape.org/namespaces/inkscape"
   xmlns:sodipodi="http://sodipodi.sourceforge.net/DTD/sodipodi-0.dtd"
   xmlns="http://www.w3.org/2000/svg"
   xmlns:svg="http://www.w3.org/2000/svg"
   xmlns:ns="&amp;#38;#38;#38;ns_sodipodi;"><defs
   id="defs1309" /><sodipodi:namedview
   id="namedview1309"
   pagecolor="#ffffff"
   bordercolor="#666666"
   borderopacity="1.0"
   inkscape:showpageshadow="2"
   inkscape:pageopacity="0.0"
   inkscape:pagecheckerboard="0"
   inkscape:deskcolor="#d1d1d1"
   inkscape:zoom="45.916667"
   inkscape:cx="12"
   inkscape:cy="12.010889"
   inkscape:window-width="1968"
   inkscape:window-height="1284"
   inkscape:window-x="3139"
   inkscape:window-y="25"
   inkscape:window-maximized="0"
   inkscape:current-layer="Symbols" />&#10;<g
   id="Symbols"
   transform="rotate(129.22546,145.32685,186.28113)">&#10;	&#10;	&#10;	&#10;	&#10;	&#10;	&#10;	&#10;	&#10;	&#10;	&#10;	&#10;	&#10;	&#10;	&#10;	&#10;	&#10;	&#10;	&#10;	&#10;	&#10;	&#10;	&#10;	&#10;	&#10;	&#10;	<g
   id="Cetus"
   transform="matrix(1.1342959,0,0,1.1342959,-16.640789,-52.558429)">&#10;		<g
   id="path18367_2_">&#10;			<polygon
   points="96.088,395.762 97.803,397.438 98.281,397.596 106.404,396.465 105.756,395.969 106.805,404.299 107.289,403.662 93.307,405.713 93.902,406.535 98.465,397.322 98.723,396.809 97.693,396.299 97.438,396.814 92.875,406.025 93.471,406.846 107.457,404.795 107.943,404.154 106.895,395.824 106.246,395.328 98.125,396.459 98.605,396.615 96.889,394.941 96.697,394.818 94.143,393.814 93.924,393.773 89.066,393.859 88.492,393.867 88.512,395.014 89.086,395.006 93.943,394.92 93.723,394.881 96.277,395.885 "
   id="polygon46" />&#10;		</g>&#10;		<g
   id="path19254_2_">&#10;			<path
   ns:nodetypes="cccc"
   d="m 89.496,394.557 -1.006,-1.592 -0.754,2.68 z"
   id="path46" />&#10;		</g>&#10;	</g>&#10;	&#10;	&#10;	&#10;	&#10;	&#10;	&#10;	&#10;	&#10;	&#10;	&#10;	&#10;	&#10;	&#10;</g>&#10;&#10;&#10;&#10;&#10;&#10;</svg>
