<?xml version="1.0" encoding="UTF-8" standalone="no"?>
<!-- Generator: Adobe Illustrator 12.0.1, SVG Export Plug-In . SVG Version: 6.00 Build 51448)  -->

<svg
   version="1.1"
   width="24"
   height="24"
   viewBox="0 0 23.999999 23.999999"
   overflow="visible"
   enable-background="new 0 0 527.249 526.275"
   xml:space="preserve"
   id="svg1309"
   sodipodi:docname="sg28.svg"
   inkscape:version="1.3 (0e150ed, 2023-07-21)"
   xmlns:inkscape="http://www.inkscape.org/namespaces/inkscape"
   xmlns:sodipodi="http://sodipodi.sourceforge.net/DTD/sodipodi-0.dtd"
   xmlns="http://www.w3.org/2000/svg"
   xmlns:svg="http://www.w3.org/2000/svg"><defs
   id="defs1309" /><sodipodi:namedview
   id="namedview1309"
   pagecolor="#ffffff"
   bordercolor="#666666"
   borderopacity="1.0"
   inkscape:showpageshadow="2"
   inkscape:pageopacity="0.0"
   inkscape:pagecheckerboard="0"
   inkscape:deskcolor="#d1d1d1"
   inkscape:zoom="47.208334"
   inkscape:cx="11.989409"
   inkscape:cy="12"
   inkscape:window-width="1968"
   inkscape:window-height="1284"
   inkscape:window-x="2738"
   inkscape:window-y="91"
   inkscape:window-maximized="0"
   inkscape:current-layer="Symbols" />&#10;<g
   id="Symbols"
   transform="rotate(110.76346,147.86759,159.31261)">&#10;	&#10;	&#10;	&#10;	&#10;	&#10;	&#10;	&#10;	&#10;	&#10;	&#10;	&#10;	&#10;	&#10;	&#10;	&#10;	&#10;	&#10;	&#10;	&#10;	&#10;	&#10;	&#10;	&#10;	&#10;	&#10;	&#10;	&#10;	<g
   id="Auriga"
   transform="matrix(1.4044658,0,0,1.4044658,-30.003552,-140.20628)">&#10;		<g
   id="path24660_2_">&#10;			<polygon
   points="70.594,340.67 68.332,346.615 68.842,346.246 58.418,346.707 59.01,347.186 57.041,335.461 56.947,334.896 55.814,335.086 55.91,335.652 57.877,347.377 58.469,347.854 68.893,347.393 69.404,347.023 71.662,341.078 71.867,340.543 70.797,340.135 "
   id="polygon50" />&#10;		</g>&#10;		<g
   id="path25547_2_">&#10;			<polygon
   points="57.242,344.531 55.943,345.83 55.865,346.539 56.994,348.34 57.195,348.531 58.576,349.326 59.188,349.301 61.24,347.879 61.711,347.551 61.059,346.607 60.586,346.936 58.535,348.357 59.146,348.334 57.766,347.537 57.965,347.73 56.834,345.93 56.756,346.641 58.053,345.342 58.457,344.936 57.646,344.125 "
   id="polygon51" />&#10;		</g>&#10;		<g
   id="path26434_2_">&#10;			<path
   d="m 63.043,335.467 1.801,-3.141 -0.949,0.066 2.514,3.223 0.463,-0.924 -4.312,-0.084 z m 4.269,-0.555 -2.514,-3.223 -0.951,0.066 -1.801,3.141 0.488,0.857 4.312,0.082 z"
   id="path51" />&#10;		</g>&#10;	</g>&#10;	&#10;	&#10;	&#10;	&#10;	&#10;	&#10;	&#10;	&#10;	&#10;	&#10;	&#10;</g>&#10;&#10;&#10;&#10;&#10;&#10;</svg>
