<?xml version="1.0" encoding="UTF-8" standalone="no"?>
<!-- Generator: Adobe Illustrator 12.0.1, SVG Export Plug-In . SVG Version: 6.00 Build 51448)  -->

<svg
   version="1.1"
   width="24"
   height="24"
   viewBox="0 0 23.999999 23.999999"
   overflow="visible"
   enable-background="new 0 0 527.249 526.275"
   xml:space="preserve"
   id="svg1309"
   sodipodi:docname="sg29.svg"
   inkscape:version="1.3 (0e150ed, 2023-07-21)"
   xmlns:inkscape="http://www.inkscape.org/namespaces/inkscape"
   xmlns:sodipodi="http://sodipodi.sourceforge.net/DTD/sodipodi-0.dtd"
   xmlns="http://www.w3.org/2000/svg"
   xmlns:svg="http://www.w3.org/2000/svg"><defs
   id="defs1309" /><sodipodi:namedview
   id="namedview1309"
   pagecolor="#ffffff"
   bordercolor="#666666"
   borderopacity="1.0"
   inkscape:showpageshadow="2"
   inkscape:pageopacity="0.0"
   inkscape:pagecheckerboard="0"
   inkscape:deskcolor="#d1d1d1"
   inkscape:zoom="47.208334"
   inkscape:cx="12.010591"
   inkscape:cy="12"
   inkscape:window-width="1968"
   inkscape:window-height="1284"
   inkscape:window-x="2875"
   inkscape:window-y="132"
   inkscape:window-maximized="0"
   inkscape:current-layer="Symbols" />&#10;<g
   id="Symbols"
   transform="rotate(101.53246,151.45306,141.66035)">&#10;	&#10;	&#10;	&#10;	&#10;	&#10;	&#10;	&#10;	&#10;	&#10;	&#10;	&#10;	&#10;	&#10;	&#10;	&#10;	&#10;	&#10;	&#10;	&#10;	&#10;	&#10;	&#10;	&#10;	&#10;	&#10;	&#10;	&#10;	&#10;	<g
   id="Eridanus"
   transform="matrix(1.2021581,0,0,1.2021581,-13.976857,-66.058816)">&#10;		<g
   id="path27363">&#10;			<polygon
   points="52.334,308.895 51.641,309.004 54.152,310.385 55.002,309.9 55.045,308.477 55.061,307.904 53.914,307.871 53.896,308.445 53.855,309.867 54.705,309.383 52.193,308 51.498,308.111 49.572,310.162 49.418,310.555 49.418,311.936 49.512,312.252 50.895,314.346 50.816,313.891 50.271,316.066 50.881,315.635 47.322,315.299 46.752,315.246 46.645,316.389 47.215,316.441 50.773,316.777 51.385,316.344 51.928,314.168 51.852,313.713 50.469,311.621 50.564,311.936 50.564,310.555 50.408,310.945 "
   id="polygon52" />&#10;		</g>&#10;		<g
   id="path27365">&#10;			<polygon
   points="53.301,308.328 52.832,308.662 53.5,309.594 53.965,309.26 55.139,308.426 54.838,308.529 57.768,308.361 58.242,308.059 58.953,306.719 59.016,306.537 59.686,302.141 59.238,302.615 63.131,301.777 63.58,301.281 63.707,300.15 63.596,299.738 62.922,298.859 62.232,298.684 57.67,300.734 57.346,301.129 56.34,305.482 56.326,305.66 56.494,307.67 56.543,308.24 57.686,308.146 57.639,307.576 57.471,305.566 57.457,305.742 58.463,301.389 58.139,301.783 62.701,299.73 62.012,299.555 62.682,300.434 62.566,300.023 62.441,301.154 62.893,300.658 58.998,301.492 58.551,301.967 57.881,306.365 57.941,306.18 57.23,307.521 57.705,307.217 54.771,307.385 54.473,307.49 "
   id="polygon53" />&#10;		</g>&#10;	</g>&#10;	&#10;	&#10;	&#10;	&#10;	&#10;	&#10;	&#10;	&#10;	&#10;	&#10;</g>&#10;&#10;&#10;&#10;&#10;&#10;</svg>
