<?xml version="1.0" encoding="UTF-8" standalone="no"?>
<!-- Generator: Adobe Illustrator 12.0.1, SVG Export Plug-In . SVG Version: 6.00 Build 51448)  -->

<svg
   version="1.1"
   width="24"
   height="24"
   viewBox="0 0 23.999999 24"
   overflow="visible"
   enable-background="new 0 0 527.249 526.275"
   xml:space="preserve"
   id="svg1309"
   sodipodi:docname="sg30.svg"
   inkscape:version="1.3 (0e150ed, 2023-07-21)"
   xmlns:inkscape="http://www.inkscape.org/namespaces/inkscape"
   xmlns:sodipodi="http://sodipodi.sourceforge.net/DTD/sodipodi-0.dtd"
   xmlns="http://www.w3.org/2000/svg"
   xmlns:svg="http://www.w3.org/2000/svg"
   xmlns:ns="&amp;#38;#38;#38;ns_sodipodi;"><defs
   id="defs1309" /><sodipodi:namedview
   id="namedview1309"
   pagecolor="#ffffff"
   bordercolor="#666666"
   borderopacity="1.0"
   inkscape:showpageshadow="2"
   inkscape:pageopacity="0.0"
   inkscape:pagecheckerboard="0"
   inkscape:deskcolor="#d1d1d1"
   inkscape:zoom="45.916668"
   inkscape:cx="12"
   inkscape:cy="12.010889"
   inkscape:window-width="1968"
   inkscape:window-height="1284"
   inkscape:window-x="3104"
   inkscape:window-y="68"
   inkscape:window-maximized="0"
   inkscape:current-layer="Symbols" />&#10;<g
   id="Symbols"
   transform="rotate(92.30146,154.09618,125.21795)">&#10;	&#10;	&#10;	&#10;	&#10;	&#10;	&#10;	&#10;	&#10;	&#10;	&#10;	&#10;	&#10;	&#10;	&#10;	&#10;	&#10;	&#10;	&#10;	&#10;	&#10;	&#10;	&#10;	&#10;	&#10;	&#10;	&#10;	&#10;	&#10;	&#10;	<g
   id="Orion"
   transform="matrix(1.2049999,0,0,1.2049999,-15.73789,-57.921974)">&#10;		<g
   id="path29179_2_">&#10;			<path
   d="m 45.635,267.242 2.748,4.424 -0.076,-0.193 0.949,4.816 0.037,-0.336 -2.562,5.943 0.648,0.785 10.193,-2.221 0.299,-0.953 -4.371,-4.654 0.135,0.236 -1.365,-4.764 0.021,0.201 0.385,-5.193 -0.727,-0.596 -5.98,1.65 z m 5.896,-1.992 -0.385,5.191 0.021,0.201 1.363,4.762 0.133,0.234 4.371,4.654 0.295,-0.953 -10.195,2.223 0.648,0.785 2.562,-5.941 0.037,-0.338 -0.951,-4.816 -0.074,-0.193 -2.748,-4.422 -0.336,0.857 5.98,-1.65 z"
   id="path53" />&#10;		</g>&#10;		<g
   id="path30066_2_">&#10;			&#10;				<rect
   x="49.855999"
   y="273.561"
   transform="matrix(-0.9667,0.2558,-0.2558,-0.9667,171.1793,527.1515)"
   width="2.9089999"
   height="2.293"
   id="rect53" />&#10;		</g>&#10;		<g
   id="path30954_2_">&#10;			<path
   ns:nodetypes="cccc"
   d="m 46.498,267.092 -1.281,-1.807 -0.615,2.58 z"
   id="path54" />&#10;		</g>&#10;		<g
   id="path31841_2_">&#10;			<path
   ns:nodetypes="cccc"
   d="m 51.893,265.568 0.049,-1.957 1.865,1.715 z"
   id="path55" />&#10;		</g>&#10;		<g
   id="path32728_2_">&#10;			<path
   ns:nodetypes="cccc"
   d="m 56.941,279.557 2.041,-0.432 -1.008,2.357 z"
   id="path56" />&#10;		</g>&#10;		<g
   id="path33615_2_">&#10;			<path
   ns:nodetypes="cccc"
   d="m 47.682,281.789 -1.789,-0.1 1.473,2.039 z"
   id="path57" />&#10;		</g>&#10;	</g>&#10;	&#10;	&#10;	&#10;	&#10;	&#10;	&#10;	&#10;	&#10;	&#10;</g>&#10;&#10;&#10;&#10;&#10;&#10;</svg>
