<?xml version="1.0" encoding="UTF-8" standalone="no"?>
<!-- Generator: Adobe Illustrator 12.0.1, SVG Export Plug-In . SVG Version: 6.00 Build 51448)  -->

<svg
   version="1.1"
   width="24"
   height="24"
   viewBox="0 0 23.999997 23.999998"
   overflow="visible"
   enable-background="new 0 0 527.249 526.275"
   xml:space="preserve"
   id="svg1309"
   sodipodi:docname="sg32.svg"
   inkscape:version="1.3 (0e150ed, 2023-07-21)"
   xmlns:inkscape="http://www.inkscape.org/namespaces/inkscape"
   xmlns:sodipodi="http://sodipodi.sourceforge.net/DTD/sodipodi-0.dtd"
   xmlns="http://www.w3.org/2000/svg"
   xmlns:svg="http://www.w3.org/2000/svg"
   xmlns:ns="&amp;#38;#38;#38;ns_sodipodi;"><defs
   id="defs1309" /><sodipodi:namedview
   id="namedview1309"
   pagecolor="#ffffff"
   bordercolor="#666666"
   borderopacity="1.0"
   inkscape:showpageshadow="2"
   inkscape:pageopacity="0.0"
   inkscape:pagecheckerboard="0"
   inkscape:deskcolor="#d1d1d1"
   inkscape:zoom="47.208332"
   inkscape:cx="11.989409"
   inkscape:cy="12"
   inkscape:window-width="1968"
   inkscape:window-height="1284"
   inkscape:window-x="2998"
   inkscape:window-y="83"
   inkscape:window-maximized="0"
   inkscape:current-layer="Symbols" />&#10;<g
   id="Symbols"
   transform="rotate(73.83946,160.58242,74.562415)">&#10;	&#10;	&#10;	&#10;	&#10;	&#10;	&#10;	&#10;	&#10;	&#10;	&#10;	&#10;	&#10;	&#10;	&#10;	&#10;	&#10;	&#10;	&#10;	&#10;	&#10;	&#10;	&#10;	&#10;	&#10;	&#10;	&#10;	&#10;	&#10;	&#10;	&#10;	&#10;	<g
   id="Monoceros"
   transform="matrix(1.0788488,0,0,1.0788488,-3.7378838,-22.350399)">&#10;		<g
   id="path2887_2_">&#10;			<polygon
   points="64.57,202.68 67.709,206.072 68.072,205.111 57.898,206.16 57.543,207.125 59.512,209.176 59.674,209.295 62.688,210.762 62.914,210.82 67.477,211.029 68.049,211.055 68.1,209.91 67.529,209.883 62.967,209.674 63.189,209.73 60.176,208.264 60.338,208.383 58.371,206.33 58.016,207.299 68.189,206.254 68.553,205.295 65.412,201.902 64.748,201.77 57.799,204.994 57.688,205.062 52.076,209.457 52.865,209.537 48.805,204.807 48.432,204.371 47.561,205.117 47.934,205.553 51.996,210.285 52.785,210.363 58.395,205.967 58.281,206.035 65.232,202.812 "
   id="polygon58" />&#10;		</g>&#10;		<g
   id="path3774_2_">&#10;			<path
   ns:nodetypes="cccc"
   d="m 48.537,205.432 0.293,-1.676 -1.926,1.508 z"
   id="path59" />&#10;		</g>&#10;		<g
   id="path4661_2_">&#10;			<path
   ns:nodetypes="cccc"
   d="m 67,210.539 1.254,-1.258 -0.082,2.516 z"
   id="path60" />&#10;		</g>&#10;	</g>&#10;	&#10;	&#10;	&#10;	&#10;	&#10;	&#10;	&#10;</g>&#10;&#10;&#10;&#10;&#10;&#10;</svg>
