<?xml version="1.0" encoding="UTF-8" standalone="no"?>
<!-- Generator: Adobe Illustrator 12.0.1, SVG Export Plug-In . SVG Version: 6.00 Build 51448)  -->

<svg
   version="1.1"
   width="24"
   height="24"
   viewBox="0 0 24 23.999999"
   overflow="visible"
   enable-background="new 0 0 527.249 526.275"
   xml:space="preserve"
   id="svg1309"
   sodipodi:docname="sg33.svg"
   inkscape:version="1.3 (0e150ed, 2023-07-21)"
   xmlns:inkscape="http://www.inkscape.org/namespaces/inkscape"
   xmlns:sodipodi="http://sodipodi.sourceforge.net/DTD/sodipodi-0.dtd"
   xmlns="http://www.w3.org/2000/svg"
   xmlns:svg="http://www.w3.org/2000/svg"
   xmlns:ns="&amp;#38;#38;#38;ns_sodipodi;"><defs
   id="defs1309" /><sodipodi:namedview
   id="namedview1309"
   pagecolor="#ffffff"
   bordercolor="#666666"
   borderopacity="1.0"
   inkscape:showpageshadow="2"
   inkscape:pageopacity="0.0"
   inkscape:pagecheckerboard="0"
   inkscape:deskcolor="#d1d1d1"
   inkscape:zoom="47.208333"
   inkscape:cx="12.010591"
   inkscape:cy="12"
   inkscape:window-width="1968"
   inkscape:window-height="1284"
   inkscape:window-x="2791"
   inkscape:window-y="54"
   inkscape:window-maximized="0"
   inkscape:current-layer="Symbols" />&#10;<g
   id="Symbols"
   transform="rotate(64.60846,165.69106,43.796947)">&#10;	&#10;	&#10;	&#10;	&#10;	&#10;	&#10;	&#10;	&#10;	&#10;	&#10;	&#10;	&#10;	&#10;	&#10;	&#10;	&#10;	&#10;	&#10;	&#10;	&#10;	&#10;	&#10;	&#10;	&#10;	&#10;	&#10;	&#10;	&#10;	&#10;	&#10;	&#10;	&#10;	<g
   id="Gemini"
   transform="matrix(1.3153631,0,0,1.3153631,-23.072629,-60.729069)">&#10;		<g
   id="path5590">&#10;			<polygon
   points="63.451,173.104 68.17,166.637 67.367,166.762 78.67,175.033 79.133,175.373 79.811,174.449 79.348,174.109 68.045,165.836 67.242,165.963 62.525,172.428 62.658,173.236 74.252,181.334 74.025,181.006 74.666,183.51 74.809,184.068 75.92,183.783 75.777,183.229 75.137,180.723 74.91,180.395 63.316,172.297 "
   id="polygon60" />&#10;		</g>&#10;		<g
   id="path6477">&#10;			<polygon
   points="75.221,181.26 81.277,172.93 81.615,172.465 80.688,171.791 80.352,172.254 74.293,180.584 73.955,181.049 74.883,181.723 "
   id="polygon61" />&#10;		</g>&#10;		<g
   id="path7364">&#10;			<path
   ns:nodetypes="cccc"
   d="m 80.641,172.826 -0.643,-2.041 2.508,2.098 z"
   id="path61" />&#10;		</g>&#10;	</g>&#10;	&#10;	&#10;	&#10;	&#10;	&#10;	&#10;</g>&#10;&#10;&#10;&#10;&#10;&#10;</svg>
