<?xml version="1.0" encoding="UTF-8" standalone="no"?>
<!-- Generator: Adobe Illustrator 12.0.1, SVG Export Plug-In . SVG Version: 6.00 Build 51448)  -->

<svg
   version="1.1"
   width="24"
   height="24"
   viewBox="0 0 23.999998 23.999999"
   overflow="visible"
   enable-background="new 0 0 527.249 526.275"
   xml:space="preserve"
   id="svg1309"
   sodipodi:docname="sg34.svg"
   inkscape:version="1.3 (0e150ed, 2023-07-21)"
   xmlns:inkscape="http://www.inkscape.org/namespaces/inkscape"
   xmlns:sodipodi="http://sodipodi.sourceforge.net/DTD/sodipodi-0.dtd"
   xmlns="http://www.w3.org/2000/svg"
   xmlns:svg="http://www.w3.org/2000/svg"
   xmlns:ns="&amp;#38;#38;#38;ns_sodipodi;"><defs
   id="defs1309" /><sodipodi:namedview
   id="namedview1309"
   pagecolor="#ffffff"
   bordercolor="#666666"
   borderopacity="1.0"
   inkscape:showpageshadow="2"
   inkscape:pageopacity="0.0"
   inkscape:pagecheckerboard="0"
   inkscape:deskcolor="#d1d1d1"
   inkscape:zoom="47.208335"
   inkscape:cx="12.010591"
   inkscape:cy="12"
   inkscape:window-width="1968"
   inkscape:window-height="1284"
   inkscape:window-x="2997"
   inkscape:window-y="62"
   inkscape:window-maximized="0"
   inkscape:current-layer="Symbols" />&#10;<g
   id="Symbols"
   transform="rotate(55.37746,172.28027,-1.2183043)">&#10;	&#10;	&#10;	&#10;	&#10;	&#10;	&#10;	&#10;	&#10;	&#10;	&#10;	&#10;	&#10;	&#10;	&#10;	&#10;	&#10;	&#10;	&#10;	&#10;	&#10;	&#10;	&#10;	&#10;	&#10;	&#10;	&#10;	&#10;	&#10;	&#10;	&#10;	&#10;	&#10;	&#10;	<g
   id="Hydra"
   transform="matrix(1.1311833,0,0,1.1311833,-8.9317296,-25.459856)">&#10;		<g
   id="path8293_2_">&#10;			<polygon
   points="84.416,140.312 82.238,138.512 82.43,139.096 82.932,137.127 82.436,137.555 85.699,137.221 85.244,137.061 90.225,141.875 90.637,142.275 91.434,141.451 91.021,141.055 86.041,136.236 85.584,136.08 82.318,136.416 81.82,136.844 81.318,138.811 81.508,139.395 83.686,141.195 84.482,141.131 85.361,140.125 85.494,139.846 85.955,137.211 86.055,136.645 84.924,136.447 84.826,137.012 84.365,139.65 84.498,139.373 83.619,140.375 "
   id="polygon62" />&#10;		</g>&#10;		<g
   id="path9180_2_">&#10;			<path
   ns:nodetypes="cccc"
   d="m 90.623,141.383 -0.041,1.801 1.676,-1.928 z"
   id="path62" />&#10;		</g>&#10;		<g
   id="path10067_2_">&#10;			<polygon
   points="96.289,153.23 96.322,152.086 95.748,152.07 92.648,151.988 93.17,152.357 91.83,148.801 91.482,148.461 90.518,148.125 89.979,148.213 88.471,149.387 89.348,149.605 88.342,147.344 88.109,146.82 87.062,147.285 87.295,147.811 88.301,150.07 89.176,150.291 90.682,149.119 90.143,149.207 91.105,149.541 90.758,149.203 92.098,152.762 92.619,153.135 95.715,153.217 "
   id="polygon63" />&#10;		</g>&#10;		<g
   id="path10954_1_">&#10;			<path
   d="m 87.387,146.488 v -1.299 l -0.316,-0.512 -1.508,-0.754 -0.652,0.098 -0.879,0.838 -0.002,0.828 1.215,1.172 0.377,0.162 1.172,0.041 z m -1.346,-0.455 -1.215,-1.172 -0.004,0.828 0.881,-0.836 -0.652,0.098 1.506,0.752 -0.316,-0.514 v 1.299 l 0.594,-0.572 -1.172,-0.041 z"
   id="path63" />&#10;		</g>&#10;	</g>&#10;	&#10;	&#10;	&#10;	&#10;	&#10;</g>&#10;&#10;&#10;&#10;&#10;&#10;</svg>
