<?xml version="1.0" encoding="UTF-8" standalone="no"?>
<!-- Generator: Adobe Illustrator 12.0.1, SVG Export Plug-In . SVG Version: 6.00 Build 51448)  -->

<svg
   version="1.1"
   width="24"
   height="24"
   viewBox="0 0 23.999999 23.999999"
   overflow="visible"
   enable-background="new 0 0 527.249 526.275"
   xml:space="preserve"
   id="svg1309"
   sodipodi:docname="sg35.svg"
   inkscape:version="1.3 (0e150ed, 2023-07-21)"
   xmlns:inkscape="http://www.inkscape.org/namespaces/inkscape"
   xmlns:sodipodi="http://sodipodi.sourceforge.net/DTD/sodipodi-0.dtd"
   xmlns="http://www.w3.org/2000/svg"
   xmlns:svg="http://www.w3.org/2000/svg"
   xmlns:ns="&amp;#38;#38;#38;ns_sodipodi;"><defs
   id="defs1309" /><sodipodi:namedview
   id="namedview1309"
   pagecolor="#ffffff"
   bordercolor="#666666"
   borderopacity="1.0"
   inkscape:showpageshadow="2"
   inkscape:pageopacity="0.0"
   inkscape:pagecheckerboard="0"
   inkscape:deskcolor="#d1d1d1"
   inkscape:zoom="47.208333"
   inkscape:cx="11.989409"
   inkscape:cy="12"
   inkscape:window-width="1968"
   inkscape:window-height="1284"
   inkscape:window-x="2707"
   inkscape:window-y="170"
   inkscape:window-maximized="0"
   inkscape:current-layer="Symbols" />&#10;<g
   id="Symbols"
   transform="rotate(46.14646,180.92109,-61.808003)">&#10;	&#10;	&#10;	&#10;	&#10;	&#10;	&#10;	&#10;	&#10;	&#10;	&#10;	&#10;	&#10;	&#10;	&#10;	&#10;	&#10;	&#10;	&#10;	&#10;	&#10;	&#10;	&#10;	&#10;	&#10;	&#10;	&#10;	&#10;	&#10;	&#10;	&#10;	&#10;	&#10;	&#10;	&#10;	<g
   id="Lynx"
   transform="matrix(0.99776006,0,0,0.99776006,6.0161389,-5.7010641)">&#10;		<g
   id="path11883">&#10;			<polygon
   points="113.193,116.195 113.166,116.021 112.369,113.551 112.279,113.381 110.814,111.453 110.479,111.24 103.234,109.691 102.674,109.572 102.434,110.691 102.996,110.812 110.238,112.363 109.902,112.148 111.367,114.072 111.277,113.902 112.074,116.373 112.045,116.195 112.045,122.688 112.324,123.178 114.418,124.436 114.641,124.512 118.994,125.055 119.564,125.127 119.705,123.988 119.139,123.916 114.783,123.373 115.008,123.451 112.914,122.193 113.193,122.688 "
   id="polygon64" />&#10;		</g>&#10;		<g
   id="path13657">&#10;			<path
   ns:nodetypes="cccc"
   d="m 103.492,110.336 -0.754,-1.633 -0.754,2.678 z"
   id="path64" />&#10;		</g>&#10;		<g
   id="path14544">&#10;			<path
   ns:nodetypes="cccc"
   d="m 118.773,124.361 1.299,-0.922 -0.588,2.553 z"
   id="path65" />&#10;		</g>&#10;	</g>&#10;	&#10;	&#10;	&#10;	&#10;</g>&#10;&#10;&#10;&#10;&#10;&#10;</svg>
