<?xml version="1.0" encoding="UTF-8" standalone="no"?>
<!-- Generator: Adobe Illustrator 12.0.1, SVG Export Plug-In . SVG Version: 6.00 Build 51448)  -->

<svg
   version="1.1"
   width="24"
   height="24"
   viewBox="0 0 23.999999 23.999998"
   overflow="visible"
   enable-background="new 0 0 527.249 526.275"
   xml:space="preserve"
   id="svg1309"
   sodipodi:docname="sg36.svg"
   inkscape:version="1.3 (0e150ed, 2023-07-21)"
   xmlns:inkscape="http://www.inkscape.org/namespaces/inkscape"
   xmlns:sodipodi="http://sodipodi.sourceforge.net/DTD/sodipodi-0.dtd"
   xmlns="http://www.w3.org/2000/svg"
   xmlns:svg="http://www.w3.org/2000/svg"
   xmlns:ns="&amp;#38;#38;#38;ns_sodipodi;"><defs
   id="defs1309" /><sodipodi:namedview
   id="namedview1309"
   pagecolor="#ffffff"
   bordercolor="#666666"
   borderopacity="1.0"
   inkscape:showpageshadow="2"
   inkscape:pageopacity="0.0"
   inkscape:pagecheckerboard="0"
   inkscape:deskcolor="#d1d1d1"
   inkscape:zoom="47.208332"
   inkscape:cx="11.989409"
   inkscape:cy="12"
   inkscape:window-width="1968"
   inkscape:window-height="1284"
   inkscape:window-x="2902"
   inkscape:window-y="210"
   inkscape:window-maximized="0"
   inkscape:current-layer="Symbols" />&#10;<g
   id="Symbols"
   transform="rotate(36.91546,196.02912,-141.64103)">&#10;	&#10;	&#10;	&#10;	&#10;	&#10;	&#10;	&#10;	&#10;	&#10;	&#10;	&#10;	&#10;	&#10;	&#10;	&#10;	&#10;	&#10;	&#10;	&#10;	&#10;	&#10;	&#10;	&#10;	&#10;	&#10;	&#10;	&#10;	&#10;	&#10;	&#10;	&#10;	&#10;	&#10;	&#10;	&#10;	<g
   id="Cancer"
   transform="matrix(1.0652277,0,0,1.0652277,-3.6343514,-11.150132)">&#10;		<g
   id="path15473_2_">&#10;			<polygon
   points="135.139,102.033 134.932,102.568 136,102.982 136.207,102.447 138.092,97.592 138.131,97.379 138.088,93.4 138.018,93.131 136.133,89.697 136.047,89.578 132.654,86.018 132.26,85.605 131.43,86.396 131.824,86.811 135.217,90.369 135.129,90.248 137.014,93.684 136.941,93.414 136.984,97.391 137.023,97.178 "
   id="polygon65" />&#10;		</g>&#10;		<g
   id="path16360_2_">&#10;			<path
   d="m 143.764,99.83 -1.715,1.426 -0.051,0.836 0.881,0.92 0.385,0.178 2.471,0.127 0.508,-0.891 -1.633,-2.469 z m 2.029,2.342 -2.471,-0.127 0.385,0.176 -0.879,-0.92 -0.049,0.838 1.717,-1.424 -0.844,-0.127 1.633,2.471 z"
   id="path66" />&#10;		</g>&#10;		<g
   id="path17247_2_">&#10;			<path
   ns:nodetypes="cccc"
   d="m 132.408,86.539 0.209,-1.547 -1.885,1.674 z"
   id="path67" />&#10;		</g>&#10;		<g
   id="path18134_2_">&#10;			<path
   ns:nodetypes="cccc"
   d="m 135.715,102.031 -1.59,0.295 2.303,1.465 z"
   id="path68" />&#10;		</g>&#10;	</g>&#10;	&#10;	&#10;	&#10;</g>&#10;&#10;&#10;&#10;&#10;&#10;</svg>
