<?xml version="1.0" encoding="UTF-8" standalone="no"?>
<!-- Generator: Adobe Illustrator 12.0.1, SVG Export Plug-In . SVG Version: 6.00 Build 51448)  -->

<svg
   version="1.1"
   width="24"
   height="24"
   viewBox="0 0 23.999999 23.999998"
   overflow="visible"
   enable-background="new 0 0 527.249 526.275"
   xml:space="preserve"
   id="svg1309"
   sodipodi:docname="sg37.svg"
   inkscape:version="1.3 (0e150ed, 2023-07-21)"
   xmlns:inkscape="http://www.inkscape.org/namespaces/inkscape"
   xmlns:sodipodi="http://sodipodi.sourceforge.net/DTD/sodipodi-0.dtd"
   xmlns="http://www.w3.org/2000/svg"
   xmlns:svg="http://www.w3.org/2000/svg"
   xmlns:ns="&amp;#38;#38;#38;ns_sodipodi;"><defs
   id="defs1309" /><sodipodi:namedview
   id="namedview1309"
   pagecolor="#ffffff"
   bordercolor="#666666"
   borderopacity="1.0"
   inkscape:showpageshadow="2"
   inkscape:pageopacity="0.0"
   inkscape:pagecheckerboard="0"
   inkscape:deskcolor="#d1d1d1"
   inkscape:zoom="47.208332"
   inkscape:cx="11.989409"
   inkscape:cy="12"
   inkscape:window-width="1968"
   inkscape:window-height="1284"
   inkscape:window-x="2888"
   inkscape:window-y="39"
   inkscape:window-maximized="0"
   inkscape:current-layer="Symbols" />&#10;<g
   id="Symbols"
   transform="rotate(27.68446,213.14919,-278.38024)">&#10;	&#10;	&#10;	&#10;	&#10;	&#10;	&#10;	&#10;	&#10;	&#10;	&#10;	&#10;	&#10;	&#10;	&#10;	&#10;	&#10;	&#10;	&#10;	&#10;	&#10;	&#10;	&#10;	&#10;	&#10;	&#10;	&#10;	&#10;	&#10;	&#10;	&#10;	&#10;	&#10;	&#10;	&#10;	&#10;	&#10;	<g
   id="Sextans"
   transform="matrix(1.0890386,0,0,1.0890386,-8.2862434,-11.227467)">&#10;		<g
   id="path19063">&#10;			<polygon
   points="156.869,70.246 162.637,71.701 163.193,71.84 163.473,70.729 162.918,70.588 157.148,69.133 156.594,68.992 156.314,70.105 "
   id="polygon68" />&#10;		</g>&#10;		<g
   id="path19950">&#10;			<polygon
   points="164.822,74.867 167.037,77.838 167.379,78.297 168.297,77.613 167.955,77.154 165.742,74.182 165.398,73.721 164.48,74.406 "
   id="polygon69" />&#10;		</g>&#10;		<g
   id="path20837">&#10;			<path
   d="m 168.68,81.705 -0.641,3.613 0.779,0.631 3.32,-1.34 0.156,-0.967 -2.68,-2.273 z m 3.029,1.844 -3.32,1.34 0.779,0.631 0.641,-3.613 -0.936,0.338 2.682,2.271 z"
   id="path69" />&#10;		</g>&#10;		<g
   id="path21724">&#10;			<path
   ns:nodetypes="cccc"
   d="m 157.242,69.746 -0.99,-1.689 -0.699,2.564 z"
   id="path70" />&#10;		</g>&#10;		<g
   id="path22611">&#10;			<path
   ns:nodetypes="cccc"
   d="m 162.311,71.029 1.631,-0.816 -0.699,2.445 z"
   id="path71" />&#10;		</g>&#10;	</g>&#10;	&#10;	&#10;</g>&#10;&#10;&#10;&#10;&#10;&#10;</svg>
