<?xml version="1.0" encoding="UTF-8" standalone="no"?>
<!-- Generator: Adobe Illustrator 12.0.1, SVG Export Plug-In . SVG Version: 6.00 Build 51448)  -->

<svg
   version="1.1"
   width="24"
   height="24"
   viewBox="0 0 24 23.999999"
   overflow="visible"
   enable-background="new 0 0 527.249 526.275"
   xml:space="preserve"
   id="svg1309"
   sodipodi:docname="sg38.svg"
   inkscape:version="1.3 (0e150ed, 2023-07-21)"
   xmlns:inkscape="http://www.inkscape.org/namespaces/inkscape"
   xmlns:sodipodi="http://sodipodi.sourceforge.net/DTD/sodipodi-0.dtd"
   xmlns="http://www.w3.org/2000/svg"
   xmlns:svg="http://www.w3.org/2000/svg"
   xmlns:ns="&amp;#38;#38;#38;ns_sodipodi;"><defs
   id="defs1309" /><sodipodi:namedview
   id="namedview1309"
   pagecolor="#ffffff"
   bordercolor="#666666"
   borderopacity="1.0"
   inkscape:showpageshadow="2"
   inkscape:pageopacity="0.0"
   inkscape:pagecheckerboard="0"
   inkscape:deskcolor="#d1d1d1"
   inkscape:zoom="47.208334"
   inkscape:cx="12.010591"
   inkscape:cy="12"
   inkscape:window-width="1968"
   inkscape:window-height="1284"
   inkscape:window-x="2966"
   inkscape:window-y="118"
   inkscape:window-maximized="0"
   inkscape:current-layer="Symbols" />&#10;<g
   id="Symbols"
   transform="rotate(18.45346,256.9644,-553.05263)">&#10;	&#10;	&#10;	&#10;	&#10;	&#10;	&#10;	&#10;	&#10;	&#10;	&#10;	&#10;	&#10;	&#10;	&#10;	&#10;	&#10;	&#10;	&#10;	&#10;	&#10;	&#10;	&#10;	&#10;	&#10;	&#10;	&#10;	&#10;	&#10;	&#10;	&#10;	&#10;	&#10;	&#10;	&#10;	&#10;	&#10;	&#10;	<g
   id="Leo_Minor"
   transform="matrix(1.0512823,0,0,1.0512823,-3.4456988,-6.082379)">&#10;		<g
   id="path23540_2_">&#10;			<polygon
   points="203.965,72.555 203.951,71.98 203.893,69.477 203.857,69.291 202.109,64.516 202.049,64.393 198.201,58.682 198.02,58.51 190.971,54.316 190.477,54.021 189.891,55.008 190.383,55.301 197.432,59.494 197.25,59.324 201.098,65.031 201.033,64.91 202.779,69.686 202.746,69.502 202.805,72.008 202.818,72.582 "
   id="polygon71" />&#10;		</g>&#10;		<g
   id="path24427_2_">&#10;			<path
   d="m 190.967,54.807 -0.348,-1.455 -1.457,2.213 z"
   id="path72" />&#10;		</g>&#10;		<g
   id="path25314_2_">&#10;			<path
   ns:nodetypes="cccc"
   d="m 203.32,71.527 -1.168,1.633 2.623,-0.465 z"
   id="path73" />&#10;		</g>&#10;	</g>&#10;	&#10;</g>&#10;&#10;&#10;&#10;&#10;&#10;</svg>
