<?xml version="1.0" encoding="UTF-8" standalone="no"?>
<!-- Generator: Adobe Illustrator 12.0.1, SVG Export Plug-In . SVG Version: 6.00 Build 51448)  -->

<svg
   version="1.1"
   width="24"
   height="24"
   viewBox="0 0 23.999999 23.999999"
   overflow="visible"
   enable-background="new 0 0 527.249 526.275"
   xml:space="preserve"
   id="svg1309"
   sodipodi:docname="sg39.svg"
   inkscape:version="1.3 (0e150ed, 2023-07-21)"
   xmlns:inkscape="http://www.inkscape.org/namespaces/inkscape"
   xmlns:sodipodi="http://sodipodi.sourceforge.net/DTD/sodipodi-0.dtd"
   xmlns="http://www.w3.org/2000/svg"
   xmlns:svg="http://www.w3.org/2000/svg"
   xmlns:ns="&amp;#38;#38;#38;ns_sodipodi;"><defs
   id="defs1309" /><sodipodi:namedview
   id="namedview1309"
   pagecolor="#ffffff"
   bordercolor="#666666"
   borderopacity="1.0"
   inkscape:showpageshadow="2"
   inkscape:pageopacity="0.0"
   inkscape:pagecheckerboard="0"
   inkscape:deskcolor="#d1d1d1"
   inkscape:zoom="45.916666"
   inkscape:cx="12"
   inkscape:cy="11.989111"
   inkscape:window-width="1968"
   inkscape:window-height="1284"
   inkscape:window-x="2923"
   inkscape:window-y="43"
   inkscape:window-maximized="0"
   inkscape:current-layer="Symbols" />&#10;<g
   id="Symbols"
   transform="rotate(9.22246,369.12914,-1329.0701)">&#10;	&#10;	&#10;	&#10;	&#10;	&#10;	&#10;	&#10;	&#10;	&#10;	&#10;	&#10;	&#10;	&#10;	&#10;	&#10;	&#10;	&#10;	&#10;	&#10;	&#10;	&#10;	&#10;	&#10;	&#10;	&#10;	&#10;	&#10;	&#10;	&#10;	&#10;	&#10;	&#10;	&#10;	&#10;	&#10;	&#10;	&#10;	&#10;	<g
   id="Leo"
   transform="matrix(1.3361994,0,0,1.3361994,-74.62207,-22.765838)">&#10;		<g
   id="path26243">&#10;			<polygon
   points="237.922,60.787 237.035,60.062 236.67,60.506 235.623,61.789 236.01,62.721 238.342,62.955 238.857,62.039 237.633,60.408 237.732,60.625 235.752,52.002 235.723,52.354 237.121,49.033 236.434,48.258 226.703,51.055 226.488,51.172 223.457,53.795 224.293,53.883 221.379,49.982 221.035,49.521 220.117,50.207 220.459,50.668 223.373,54.57 224.207,54.66 227.238,52.039 227.02,52.156 236.75,49.361 236.061,48.586 234.666,51.908 234.633,52.26 236.615,60.881 236.715,61.098 237.939,62.729 238.455,61.814 236.125,61.58 236.512,62.514 237.559,61.232 "
   id="polygon73" />&#10;		</g>&#10;		<g
   id="path27130">&#10;			<polygon
   points="229.854,60.576 227.117,52.127 226.939,51.584 225.848,51.938 226.025,52.482 228.764,60.928 228.939,61.475 230.031,61.121 "
   id="polygon74" />&#10;		</g>&#10;		<g
   id="path28017">&#10;			<path
   ns:nodetypes="cccc"
   d="m 221.152,50.615 0.174,-2.037 -2.154,1.98 z"
   id="path74" />&#10;		</g>&#10;		<g
   id="path28904">&#10;			<path
   ns:nodetypes="cccc"
   d="m 229.193,60.402 -0.76,1.867 2.332,-0.816 z"
   id="path75" />&#10;		</g>&#10;	</g>&#10;</g>&#10;&#10;&#10;&#10;&#10;&#10;</svg>
