<?xml version="1.0" encoding="UTF-8" standalone="no"?>
<!-- Generator: Adobe Illustrator 12.0.1, SVG Export Plug-In . SVG Version: 6.00 Build 51448)  -->

<svg
   version="1.1"
   width="20"
   height="22.037786"
   viewBox="0 0 19.999999 22.037785"
   overflow="visible"
   enable-background="new 0 0 527.249 526.275"
   xml:space="preserve"
   id="svg1309"
   sodipodi:docname="40.svg"
   inkscape:version="1.3 (0e150ed, 2023-07-21)"
   xmlns:inkscape="http://www.inkscape.org/namespaces/inkscape"
   xmlns:sodipodi="http://sodipodi.sourceforge.net/DTD/sodipodi-0.dtd"
   xmlns="http://www.w3.org/2000/svg"
   xmlns:svg="http://www.w3.org/2000/svg"
   xmlns:ns0="&amp;#38;#38;#38;ns_sodipodi;"><defs
   id="defs1309" /><sodipodi:namedview
   id="namedview1309"
   pagecolor="#ffffff"
   bordercolor="#666666"
   borderopacity="1.0"
   inkscape:showpageshadow="2"
   inkscape:pageopacity="0.0"
   inkscape:pagecheckerboard="0"
   inkscape:deskcolor="#d1d1d1"
   inkscape:zoom="44.6"
   inkscape:cx="10"
   inkscape:cy="11.020179"
   inkscape:window-width="1968"
   inkscape:window-height="1284"
   inkscape:window-x="79"
   inkscape:window-y="25"
   inkscape:window-maximized="0"
   inkscape:current-layer="Symbols" />&#10;<g
   id="Symbols"
   transform="rotate(27.68446,217.13086,-279.36134)">&#10;	&#10;	&#10;	&#10;	&#10;	&#10;	&#10;	&#10;	&#10;	&#10;	&#10;	&#10;	&#10;	&#10;	&#10;	&#10;	&#10;	&#10;	&#10;	&#10;	&#10;	&#10;	&#10;	&#10;	&#10;	&#10;	&#10;	&#10;	&#10;	&#10;	&#10;	&#10;	&#10;	&#10;	&#10;	&#10;	&#10;	<g
   id="Sextans"
   transform="matrix(1.6610913,-1.1589957,0.91769488,0.61059319,-158.47335,221.72265)">&#10;		<g
   id="path19063">&#10;			<polygon
   points="162.637,71.701 163.193,71.84 163.473,70.729 162.918,70.588 157.148,69.133 156.594,68.992 156.314,70.105 156.869,70.246 "
   id="polygon68" />&#10;		</g>&#10;		&#10;		&#10;		<g
   id="path21724">&#10;			<path
   ns0:nodetypes="cccc"
   d="m 157.242,69.746 -0.99,-1.689 -0.699,2.564 z"
   id="path70" />&#10;		</g>&#10;		<g
   id="path22611">&#10;			<path
   ns0:nodetypes="cccc"
   d="m 162.311,71.029 1.631,-0.816 -0.699,2.445 z"
   id="path71" />&#10;		</g>&#10;	</g>&#10;	&#10;	&#10;<path
   id="path1"
   style="fill:#000000;stroke-width:2;stroke-linecap:square;stroke-linejoin:round"
   d="m 164.16631,64.763882 c -3.52557,1.849465 -4.91459,6.149041 -3.10244,9.603289 1.81181,3.455286 6.13983,4.756668 9.66585,2.906403 3.52509,-1.850405 4.91294,-6.150358 3.09981,-9.604109 -1.81208,-3.453443 -6.13807,-4.754201 -9.66322,-2.905583 z m 0.58872,1.439734 c 2.68662,-1.410127 6.24658,-0.643597 7.67353,2.07615 1.42695,2.719737 0.32884,6.259344 -2.35822,7.668602 -2.68645,1.408801 -6.24457,0.160597 -7.67116,-2.558457 -1.4266,-2.719053 -0.33003,-5.77642 2.35585,-7.186295 z"
   sodipodi:nodetypes="cccccccccc" /></g>&#10;&#10;&#10;&#10;&#10;&#10;</svg>
